<svg version="1.1" xmlns="http://www.w3.org/2000/svg" xmlns:xlink="http://www.w3.org/1999/xlink" width="916" height="700"><defs/><g><g transform="translate(2,-30) scale(1,1)"><rect fill="#C0C0C0" stroke="none" x="199" y="47" width="712" height="680" opacity="0.2"/></g><g transform="translate(2,-30) scale(1,1)"><rect fill="#ffffff" stroke="none" x="192" y="40" width="712" height="680"/></g><g transform="translate(2,-30) scale(1,1)"><path fill="none" stroke="#000000" d="M 192 40 L 904 40 L 904 720 L 192 720 L 192 40 Z Z" stroke-miterlimit="10"/></g><g transform="translate(2,-30) scale(1,1)"><g><path fill="none" stroke="none"/><text fill="#000000" stroke="none" font-family="Arial" font-size="13px" font-style="normal" font-weight="bold" text-decoration="none" x="495.254150390625" y="59.5">Regis VIP Parking</text></g></g><g transform="translate(2,-30) scale(1,1)"><path fill="#ffffff" stroke="none" d="M 62.43571750710227 505.68 C 62.43571750710227 500.886167936 66.32155983204773 497 71.114990234375 497 C 75.90842063670227 497 79.79426296164773 500.886167936 79.79426296164773 505.68 C 79.79426296164773 510.473832064 75.90842063670227 514.36 71.114990234375 514.36 C 66.32155983204773 514.36 62.43571750710227 510.473832064 62.43571750710227 505.68 Z"/></g><g transform="translate(2,-30) scale(1,1)"><path fill="none" stroke="#000000" d="M 62.43571750710227 505.68 C 62.43571750710227 500.886167936 66.32155983204773 497 71.114990234375 497 C 75.90842063670227 497 79.79426296164773 500.886167936 79.79426296164773 505.68 C 79.79426296164773 510.473832064 75.90842063670227 514.36 71.114990234375 514.36 C 66.32155983204773 514.36 62.43571750710227 510.473832064 62.43571750710227 505.68 Z" stroke-miterlimit="10"/></g><g transform="translate(2,-30) scale(1,1)"><path fill="none" stroke="#000000" d="M 71.114990234375 514.36 L 71.114990234375 531.64" stroke-miterlimit="10"/></g><g transform="translate(2,-30) scale(1,1)"><path fill="none" stroke="#000000" d="M 61.92517205255682 520.84 L 80.30480841619318 520.84" stroke-miterlimit="10"/></g><g transform="translate(2,-30) scale(1,1)"><path fill="none" stroke="#000000" d="M 71.114990234375 531.64 L 58.351353870738635 549" stroke-miterlimit="10"/></g><g transform="translate(2,-30) scale(1,1)"><path fill="none" stroke="#000000" d="M 71.114990234375 531.64 L 83.87862659801137 549" stroke-miterlimit="10"/></g><g transform="translate(2,-30) scale(1,1)"><g><path fill="none" stroke="none"/><text fill="#000000" stroke="none" font-family="Arial" font-size="13px" font-style="normal" font-weight="bold" text-decoration="none" x="32.825927734375" y="569.5">Administrator</text></g></g><g transform="translate(2,-30) scale(1,1)"><path fill="#ffffff" stroke="none" d="M 69.66569797585227 153.68 C 69.66569797585227 148.886167936 73.55154030079773 145 78.344970703125 145 C 83.13840110545227 145 87.02424343039773 148.886167936 87.02424343039773 153.68 C 87.02424343039773 158.47383206400002 83.13840110545227 162.36 78.344970703125 162.36 C 73.55154030079773 162.36 69.66569797585227 158.47383206400002 69.66569797585227 153.68 Z"/></g><g transform="translate(2,-30) scale(1,1)"><path fill="none" stroke="#000000" d="M 69.66569797585227 153.68 C 69.66569797585227 148.886167936 73.55154030079773 145 78.344970703125 145 C 83.13840110545227 145 87.02424343039773 148.886167936 87.02424343039773 153.68 C 87.02424343039773 158.47383206400002 83.13840110545227 162.36 78.344970703125 162.36 C 73.55154030079773 162.36 69.66569797585227 158.47383206400002 69.66569797585227 153.68 Z" stroke-miterlimit="10"/></g><g transform="translate(2,-30) scale(1,1)"><path fill="none" stroke="#000000" d="M 78.344970703125 162.36 L 78.344970703125 179.64" stroke-miterlimit="10"/></g><g transform="translate(2,-30) scale(1,1)"><path fill="none" stroke="#000000" d="M 69.15515252130682 168.84 L 87.53478888494318 168.84" stroke-miterlimit="10"/></g><g transform="translate(2,-30) scale(1,1)"><path fill="none" stroke="#000000" d="M 78.344970703125 179.64 L 65.58133433948863 197" stroke-miterlimit="10"/></g><g transform="translate(2,-30) scale(1,1)"><path fill="none" stroke="#000000" d="M 78.344970703125 179.64 L 91.10860706676137 197" stroke-miterlimit="10"/></g><g transform="translate(2,-30) scale(1,1)"><g><path fill="none" stroke="none"/><text fill="#000000" stroke="none" font-family="Arial" font-size="13px" font-style="normal" font-weight="bold" text-decoration="none" x="31.746826171875" y="217.5">Regis Customer</text></g></g><g transform="translate(2,-30) scale(1,1)"><path fill="#C0C0C0" stroke="none" d="M 263 112 C 263 102.6111584 285.6096176 95 313.5 95 C 341.3903824 95 364 102.6111584 364 112 C 364 121.3888416 341.3903824 129 313.5 129 C 285.6096176 129 263 121.3888416 263 112 Z" opacity="0.2"/></g><g transform="translate(2,-30) scale(1,1)"><path fill="#ffffff" stroke="none" d="M 256 105 C 256 95.6111584 278.6096176 88 306.5 88 C 334.3903824 88 357 95.6111584 357 105 C 357 114.3888416 334.3903824 122 306.5 122 C 278.6096176 122 256 114.3888416 256 105 Z"/></g><g transform="translate(2,-30) scale(1,1)"><path fill="none" stroke="#000000" d="M 256 105 C 256 95.6111584 278.6096176 88 306.5 88 C 334.3903824 88 357 95.6111584 357 105 C 357 114.3888416 334.3903824 122 306.5 122 C 278.6096176 122 256 114.3888416 256 105 Z" stroke-miterlimit="10"/></g><g transform="translate(2,-30) scale(1,1)"><g><path fill="none" stroke="none"/><text fill="#000000" stroke="none" font-family="Arial" font-size="13px" font-style="normal" font-weight="bold" text-decoration="none" x="288.42822265625" y="112">Log In</text></g></g><g transform="translate(2,-30) scale(1,1)"><path fill="#C0C0C0" stroke="none" d="M 287 200 C 287 190.6111584 314.7583424 183 349 183 C 383.2416576 183 411 190.6111584 411 200 C 411 209.3888416 383.2416576 217 349 217 C 314.7583424 217 287 209.3888416 287 200 Z" opacity="0.2"/></g><g transform="translate(2,-30) scale(1,1)"><path fill="#ffffff" stroke="none" d="M 280 193 C 280 183.6111584 307.7583424 176 342 176 C 376.2416576 176 404 183.6111584 404 193 C 404 202.3888416 376.2416576 210 342 210 C 307.7583424 210 280 202.3888416 280 193 Z"/></g><g transform="translate(2,-30) scale(1,1)"><path fill="none" stroke="#000000" d="M 280 193 C 280 183.6111584 307.7583424 176 342 176 C 376.2416576 176 404 183.6111584 404 193 C 404 202.3888416 376.2416576 210 342 210 C 307.7583424 210 280 202.3888416 280 193 Z" stroke-miterlimit="10"/></g><g transform="translate(2,-30) scale(1,1)"><g><path fill="none" stroke="none"/><text fill="#000000" stroke="none" font-family="Arial" font-size="13px" font-style="normal" font-weight="bold" text-decoration="none" x="305.86279296875" y="200">Authenticate</text></g></g><g transform="translate(2,-30) scale(1,1)"><path fill="none" stroke="#000000" d="M 313 123 L 335 175" stroke-miterlimit="10" stroke-dasharray="3"/></g><g transform="translate(2,-30) scale(1,1)"><path fill="none" stroke="#000000" d="M 327.1633874655167 167.2807057327513 L 335 175 L 334.9170434576813 164.00031281298934" stroke-miterlimit="10"/></g><g transform="translate(2,-30) scale(1,1)"><g><path fill="none" stroke="none"/><text fill="#000000" stroke="none" font-family="Arial" font-size="13px" font-style="normal" font-weight="normal" text-decoration="none" x="324" y="144">«include»</text></g></g><g transform="translate(2,-30) scale(1,1)"><path fill="#C0C0C0" stroke="none" d="M 455 112 C 455 102.6111584 501.3385232 95 558.5 95 C 615.6614768 95 662 102.6111584 662 112 C 662 121.3888416 615.6614768 129 558.5 129 C 501.3385232 129 455 121.3888416 455 112 Z" opacity="0.2"/></g><g transform="translate(2,-30) scale(1,1)"><path fill="#ffffff" stroke="none" d="M 448 105 C 448 95.6111584 494.3385232 88 551.5 88 C 608.6614768 88 655 95.6111584 655 105 C 655 114.3888416 608.6614768 122 551.5 122 C 494.3385232 122 448 114.3888416 448 105 Z"/></g><g transform="translate(2,-30) scale(1,1)"><path fill="none" stroke="#000000" d="M 448 105 C 448 95.6111584 494.3385232 88 551.5 88 C 608.6614768 88 655 95.6111584 655 105 C 655 114.3888416 608.6614768 122 551.5 122 C 494.3385232 122 448 114.3888416 448 105 Z" stroke-miterlimit="10"/></g><g transform="translate(2,-30) scale(1,1)"><g><path fill="none" stroke="none"/><text fill="#000000" stroke="none" font-family="Arial" font-size="13px" font-style="normal" font-weight="bold" text-decoration="none" x="488.629638671875" y="112">Authentication Failure</text></g></g><g transform="translate(2,-30) scale(1,1)"><path fill="none" stroke="#000000" d="M 447 105 L 358 105" stroke-miterlimit="10" stroke-dasharray="3"/></g><g transform="translate(2,-30) scale(1,1)"><path fill="none" stroke="#000000" d="M 368.16267485762415 100.79048224398402 L 358 105 L 368.16267485762415 109.20951775601598" stroke-miterlimit="10"/></g><g transform="translate(2,-30) scale(1,1)"><g><path fill="none" stroke="none"/><text fill="#000000" stroke="none" font-family="Arial" font-size="13px" font-style="normal" font-weight="normal" text-decoration="none" x="392" y="101">«extend»</text></g></g><g transform="translate(2,-30) scale(1,1)"><path fill="#C0C0C0" stroke="none" d="M 271 264 C 271 254.6111584 315.9953776 247 371.5 247 C 427.0046224 247 472 254.6111584 472 264 C 472 273.3888416 427.0046224 281 371.5 281 C 315.9953776 281 271 273.3888416 271 264 Z" opacity="0.2"/></g><g transform="translate(2,-30) scale(1,1)"><path fill="#ffffff" stroke="none" d="M 264 257 C 264 247.6111584 308.9953776 240 364.5 240 C 420.0046224 240 465 247.6111584 465 257 C 465 266.3888416 420.0046224 274 364.5 274 C 308.9953776 274 264 266.3888416 264 257 Z"/></g><g transform="translate(2,-30) scale(1,1)"><path fill="none" stroke="#000000" d="M 264 257 C 264 247.6111584 308.9953776 240 364.5 240 C 420.0046224 240 465 247.6111584 465 257 C 465 266.3888416 420.0046224 274 364.5 274 C 308.9953776 274 264 266.3888416 264 257 Z" stroke-miterlimit="10"/></g><g transform="translate(2,-30) scale(1,1)"><g><path fill="none" stroke="none"/><text fill="#000000" stroke="none" font-family="Arial" font-size="13px" font-style="normal" font-weight="bold" text-decoration="none" x="325.490478515625" y="264">Parking Form</text></g></g><g transform="translate(2,-30) scale(1,1)"><path fill="#C0C0C0" stroke="none" d="M 527 264 C 527 254.6111584 607.3648784 247 706.5 247 C 805.6351216 247 886 254.6111584 886 264 C 886 273.3888416 805.6351216 281 706.5 281 C 607.3648784 281 527 273.3888416 527 264 Z" opacity="0.2"/></g><g transform="translate(2,-30) scale(1,1)"><path fill="#ffffff" stroke="none" d="M 520 257 C 520 247.6111584 600.3648784 240 699.5 240 C 798.6351216 240 879 247.6111584 879 257 C 879 266.3888416 798.6351216 274 699.5 274 C 600.3648784 274 520 266.3888416 520 257 Z"/></g><g transform="translate(2,-30) scale(1,1)"><path fill="none" stroke="#000000" d="M 520 257 C 520 247.6111584 600.3648784 240 699.5 240 C 798.6351216 240 879 247.6111584 879 257 C 879 266.3888416 798.6351216 274 699.5 274 C 600.3648784 274 520 266.3888416 520 257 Z" stroke-miterlimit="10"/></g><g transform="translate(2,-30) scale(1,1)"><g><path fill="none" stroke="none"/><text fill="#000000" stroke="none" font-family="Arial" font-size="13px" font-style="normal" font-weight="bold" text-decoration="none" x="584.25830078125" y="264">Select Date &amp; Time for Parking or Event</text></g></g><g transform="translate(2,-30) scale(1,1)"><path fill="none" stroke="#000000" d="M 466 257 L 519 257" stroke-miterlimit="10" stroke-dasharray="3"/></g><g transform="translate(2,-30) scale(1,1)"><path fill="none" stroke="#000000" d="M 508.83732514237585 261.209517756016 L 519 257 L 508.83732514237585 252.790482243984" stroke-miterlimit="10"/></g><g transform="translate(2,-30) scale(1,1)"><g><path fill="none" stroke="none"/><text fill="#000000" stroke="none" font-family="Arial" font-size="13px" font-style="normal" font-weight="normal" text-decoration="none" x="465" y="234">«include»</text></g></g><g transform="translate(2,-30) scale(1,1)"><path fill="#C0C0C0" stroke="none" d="M 247 488 C 247 478.6111584 291.3238048 471 346 471 C 400.6761952 471 445 478.6111584 445 488 C 445 497.3888416 400.6761952 505 346 505 C 291.3238048 505 247 497.3888416 247 488 Z" opacity="0.2"/></g><g transform="translate(2,-30) scale(1,1)"><path fill="#ffffff" stroke="none" d="M 240 481 C 240 471.6111584 284.3238048 464 339 464 C 393.6761952 464 438 471.6111584 438 481 C 438 490.3888416 393.6761952 498 339 498 C 284.3238048 498 240 490.3888416 240 481 Z"/></g><g transform="translate(2,-30) scale(1,1)"><path fill="none" stroke="#000000" d="M 240 481 C 240 471.6111584 284.3238048 464 339 464 C 393.6761952 464 438 471.6111584 438 481 C 438 490.3888416 393.6761952 498 339 498 C 284.3238048 498 240 490.3888416 240 481 Z" stroke-miterlimit="10"/></g><g transform="translate(2,-30) scale(1,1)"><g><path fill="none" stroke="none"/><text fill="#000000" stroke="none" font-family="Arial" font-size="13px" font-style="normal" font-weight="bold" text-decoration="none" x="279.0400390625" y="488">Administrative Tasks</text></g></g><g transform="translate(2,-30) scale(1,1)"><path fill="#C0C0C0" stroke="none" d="M 215 624 C 215 614.6111584 263.3532416 607 323 607 C 382.6467584 607 431 614.6111584 431 624 C 431 633.3888416 382.6467584 641 323 641 C 263.3532416 641 215 633.3888416 215 624 Z" opacity="0.2"/></g><g transform="translate(2,-30) scale(1,1)"><path fill="#ffffff" stroke="none" d="M 208 617 C 208 607.6111584 256.3532416 600 316 600 C 375.6467584 600 424 607.6111584 424 617 C 424 626.3888416 375.6467584 634 316 634 C 256.3532416 634 208 626.3888416 208 617 Z"/></g><g transform="translate(2,-30) scale(1,1)"><path fill="none" stroke="#000000" d="M 208 617 C 208 607.6111584 256.3532416 600 316 600 C 375.6467584 600 424 607.6111584 424 617 C 424 626.3888416 375.6467584 634 316 634 C 256.3532416 634 208 626.3888416 208 617 Z" stroke-miterlimit="10"/></g><g transform="translate(2,-30) scale(1,1)"><g><path fill="none" stroke="none"/><text fill="#000000" stroke="none" font-family="Arial" font-size="13px" font-style="normal" font-weight="bold" text-decoration="none" x="249.52099609375" y="624">Approve or Disapprove</text></g></g><g transform="translate(2,-30) scale(1,1)"><path fill="#C0C0C0" stroke="none" d="M 631 488 C 631 478.6111584 653.6096176 471 681.5 471 C 709.3903824 471 732 478.6111584 732 488 C 732 497.3888416 709.3903824 505 681.5 505 C 653.6096176 505 631 497.3888416 631 488 Z" opacity="0.2"/></g><g transform="translate(2,-30) scale(1,1)"><path fill="#ffffff" stroke="none" d="M 624 481 C 624 471.6111584 646.6096176 464 674.5 464 C 702.3903824 464 725 471.6111584 725 481 C 725 490.3888416 702.3903824 498 674.5 498 C 646.6096176 498 624 490.3888416 624 481 Z"/></g><g transform="translate(2,-30) scale(1,1)"><path fill="none" stroke="#000000" d="M 624 481 C 624 471.6111584 646.6096176 464 674.5 464 C 702.3903824 464 725 471.6111584 725 481 C 725 490.3888416 702.3903824 498 674.5 498 C 646.6096176 498 624 490.3888416 624 481 Z" stroke-miterlimit="10"/></g><g transform="translate(2,-30) scale(1,1)"><g><path fill="none" stroke="none"/><text fill="#000000" stroke="none" font-family="Arial" font-size="13px" font-style="normal" font-weight="bold" text-decoration="none" x="651.740478515625" y="488">Reports</text></g></g><g transform="translate(2,-30) scale(1,1)"><path fill="none" stroke="#000000" d="M 439 481 L 623 481" stroke-miterlimit="10" stroke-dasharray="3"/></g><g transform="translate(2,-30) scale(1,1)"><path fill="none" stroke="#000000" d="M 612.8373251423759 485.209517756016 L 623 481 L 612.8373251423758 476.790482243984" stroke-miterlimit="10"/></g><g transform="translate(2,-30) scale(1,1)"><g><path fill="none" stroke="none"/><text fill="#000000" stroke="none" font-family="Arial" font-size="13px" font-style="normal" font-weight="normal" text-decoration="none" x="522" y="472">«include»</text></g></g><g transform="translate(2,-30) scale(1,1)"><path fill="#C0C0C0" stroke="none" d="M 479 640 C 479 630.6111584 527.3532416 623 587 623 C 646.6467584 623 695 630.6111584 695 640 C 695 649.3888416 646.6467584 657 587 657 C 527.3532416 657 479 649.3888416 479 640 Z" opacity="0.2"/></g><g transform="translate(2,-30) scale(1,1)"><path fill="#ffffff" stroke="none" d="M 472 633 C 472 623.6111584 520.3532416 616 580 616 C 639.6467584 616 688 623.6111584 688 633 C 688 642.3888416 639.6467584 650 580 650 C 520.3532416 650 472 642.3888416 472 633 Z"/></g><g transform="translate(2,-30) scale(1,1)"><path fill="none" stroke="#000000" d="M 472 633 C 472 623.6111584 520.3532416 616 580 616 C 639.6467584 616 688 623.6111584 688 633 C 688 642.3888416 639.6467584 650 580 650 C 520.3532416 650 472 642.3888416 472 633 Z" stroke-miterlimit="10"/></g><g transform="translate(2,-30) scale(1,1)"><g><path fill="none" stroke="none"/><text fill="#000000" stroke="none" font-family="Arial" font-size="13px" font-style="normal" font-weight="bold" text-decoration="none" x="512.070556640625" y="640">Manual Parking Update</text></g></g><g transform="translate(2,-30) scale(1,1)"><path fill="#C0C0C0" stroke="none" d="M 599 440 C 599 430.6111584 654.9644 423 724 423 C 793.0356 423 849 430.6111584 849 440 C 849 449.3888416 793.0356 457 724 457 C 654.9644 457 599 449.3888416 599 440 Z" opacity="0.2"/></g><g transform="translate(2,-30) scale(1,1)"><path fill="#ffffff" stroke="none" d="M 592 433 C 592 423.6111584 647.9644 416 717 416 C 786.0356 416 842 423.6111584 842 433 C 842 442.3888416 786.0356 450 717 450 C 647.9644 450 592 442.3888416 592 433 Z"/></g><g transform="translate(2,-30) scale(1,1)"><path fill="none" stroke="#000000" d="M 592 433 C 592 423.6111584 647.9644 416 717 416 C 786.0356 416 842 423.6111584 842 433 C 842 442.3888416 786.0356 450 717 450 C 647.9644 450 592 442.3888416 592 433 Z" stroke-miterlimit="10"/></g><g transform="translate(2,-30) scale(1,1)"><g><path fill="none" stroke="none"/><text fill="#000000" stroke="none" font-family="Arial" font-size="13px" font-style="normal" font-weight="bold" text-decoration="none" x="637.16552734375" y="440">CRUD Categories &amp; Events</text></g></g><g transform="translate(2,-30) scale(1,1)"><path fill="none" stroke="#000000" d="M 439 468 L 591 449" stroke-miterlimit="10" stroke-dasharray="3"/></g><g transform="translate(2,-30) scale(1,1)"><path fill="none" stroke="#000000" d="M 581.4379289881614 454.43753601960987 L 591 449 L 580.3936761529293 446.0835133377538" stroke-miterlimit="10"/></g><g transform="translate(2,-30) scale(1,1)"><g><path fill="none" stroke="none"/><text fill="#000000" stroke="none" font-family="Arial" font-size="13px" font-style="normal" font-weight="normal" text-decoration="none" x="476" y="448">«include»</text></g></g><g transform="translate(2,-30) scale(1,1)"><path fill="#C0C0C0" stroke="none" d="M 415 184 C 415 174.6111584 471.1882576 167 540.5 167 C 609.8117424 167 666 174.6111584 666 184 C 666 193.3888416 609.8117424 201 540.5 201 C 471.1882576 201 415 193.3888416 415 184 Z" opacity="0.2"/></g><g transform="translate(2,-30) scale(1,1)"><path fill="#ffffff" stroke="none" d="M 408 177 C 408 167.6111584 464.1882576 160 533.5 160 C 602.8117424 160 659 167.6111584 659 177 C 659 186.3888416 602.8117424 194 533.5 194 C 464.1882576 194 408 186.3888416 408 177 Z"/></g><g transform="translate(2,-30) scale(1,1)"><path fill="none" stroke="#000000" d="M 408 177 C 408 167.6111584 464.1882576 160 533.5 160 C 602.8117424 160 659 167.6111584 659 177 C 659 186.3888416 602.8117424 194 533.5 194 C 464.1882576 194 408 186.3888416 408 177 Z" stroke-miterlimit="10"/></g><g transform="translate(2,-30) scale(1,1)"><g><path fill="none" stroke="none"/><text fill="#000000" stroke="none" font-family="Arial" font-size="13px" font-style="normal" font-weight="bold" text-decoration="none" x="454.379638671875" y="184">Non Regis Access Request</text></g></g><g transform="translate(2,-30) scale(1,1)"><path fill="none" stroke="#000000" d="M 358 121 L 476 159" stroke-miterlimit="10" stroke-dasharray="3"/></g><g transform="translate(2,-30) scale(1,1)"><path fill="none" stroke="#000000" d="M 465.0362014123759 159.8916953123187 L 476 159 L 467.6168998690347 151.8779474732203" stroke-miterlimit="10"/></g><g transform="translate(2,-30) scale(1,1)"><g><path fill="none" stroke="none"/><text fill="#000000" stroke="none" font-family="Arial" font-size="13px" font-style="normal" font-weight="normal" text-decoration="none" x="408" y="141">«include»</text></g></g><g transform="translate(2,-30) scale(1,1)"><path fill="#C0C0C0" stroke="none" d="M 551 592 C 551 582.6111584 622.4105744 575 710.5 575 C 798.5894256 575 870 582.6111584 870 592 C 870 601.3888416 798.5894256 609 710.5 609 C 622.4105744 609 551 601.3888416 551 592 Z" opacity="0.2"/></g><g transform="translate(2,-30) scale(1,1)"><path fill="#ffffff" stroke="none" d="M 544 585 C 544 575.6111584 615.4105744 568 703.5 568 C 791.5894256 568 863 575.6111584 863 585 C 863 594.3888416 791.5894256 602 703.5 602 C 615.4105744 602 544 594.3888416 544 585 Z"/></g><g transform="translate(2,-30) scale(1,1)"><path fill="none" stroke="#000000" d="M 544 585 C 544 575.6111584 615.4105744 568 703.5 568 C 791.5894256 568 863 575.6111584 863 585 C 863 594.3888416 791.5894256 602 703.5 602 C 615.4105744 602 544 594.3888416 544 585 Z" stroke-miterlimit="10"/></g><g transform="translate(2,-30) scale(1,1)"><g><path fill="none" stroke="none"/><text fill="#000000" stroke="none" font-family="Arial" font-size="13px" font-style="normal" font-weight="bold" text-decoration="none" x="602.696044921875" y="592">Approve Non Regis Guest Account</text></g></g><g transform="translate(2,-30) scale(1,1)"><path fill="none" stroke="#000000" d="M 402 499 L 640 567" stroke-miterlimit="10" stroke-dasharray="3"/></g><g transform="translate(2,-30) scale(1,1)"><path fill="none" stroke="#000000" d="M 629.0719012864703 568.2556506310877 L 640 567 L 631.3847882181439 560.1605463702306" stroke-miterlimit="10"/></g><g transform="translate(2,-30) scale(1,1)"><g><path fill="none" stroke="none"/><text fill="#000000" stroke="none" font-family="Arial" font-size="13px" font-style="normal" font-weight="normal" text-decoration="none" x="576" y="551">«include»</text></g></g><g transform="translate(2,-30) scale(1,1)"><path fill="#ffffff" stroke="none" d="M 68.10661594460227 305.68 C 68.10661594460227 300.886167936 71.99245826954773 297 76.785888671875 297 C 81.57931907420227 297 85.46516139914773 300.886167936 85.46516139914773 305.68 C 85.46516139914773 310.473832064 81.57931907420227 314.36 76.785888671875 314.36 C 71.99245826954773 314.36 68.10661594460227 310.473832064 68.10661594460227 305.68 Z"/></g><g transform="translate(2,-30) scale(1,1)"><path fill="none" stroke="#000000" d="M 68.10661594460227 305.68 C 68.10661594460227 300.886167936 71.99245826954773 297 76.785888671875 297 C 81.57931907420227 297 85.46516139914773 300.886167936 85.46516139914773 305.68 C 85.46516139914773 310.473832064 81.57931907420227 314.36 76.785888671875 314.36 C 71.99245826954773 314.36 68.10661594460227 310.473832064 68.10661594460227 305.68 Z" stroke-miterlimit="10"/></g><g transform="translate(2,-30) scale(1,1)"><path fill="none" stroke="#000000" d="M 76.785888671875 314.36 L 76.785888671875 331.64" stroke-miterlimit="10"/></g><g transform="translate(2,-30) scale(1,1)"><path fill="none" stroke="#000000" d="M 67.59607049005682 320.84 L 85.97570685369318 320.84" stroke-miterlimit="10"/></g><g transform="translate(2,-30) scale(1,1)"><path fill="none" stroke="#000000" d="M 76.785888671875 331.64 L 64.02225230823863 349" stroke-miterlimit="10"/></g><g transform="translate(2,-30) scale(1,1)"><path fill="none" stroke="#000000" d="M 76.785888671875 331.64 L 89.54952503551137 349" stroke-miterlimit="10"/></g><g transform="translate(2,-30) scale(1,1)"><g><path fill="none" stroke="none"/><text fill="#000000" stroke="none" font-family="Arial" font-size="13px" font-style="normal" font-weight="bold" text-decoration="none" x="16.457763671875" y="369.5">Non Regis Customer</text></g></g><g transform="translate(2,-30) scale(1,1)"><path fill="none" stroke="#000000" d="M 134 164 L 255 122" stroke-miterlimit="10"/></g><g transform="translate(2,-30) scale(1,1)"><path fill="none" stroke="#000000" d="M 116 295 L 288 123" stroke-miterlimit="10"/></g><g transform="translate(2,-30) scale(1,1)"><path fill="none" stroke="#000000" d="M 93 495 L 296 123" stroke-miterlimit="10"/></g><g transform="translate(2,-30) scale(1,1)"><path fill="none" stroke="#000000" d="M 119 525 L 250 499" stroke-miterlimit="10"/></g><g transform="translate(2,-30) scale(1,1)"><path fill="none" stroke="#000000" d="M 147 316 L 298 275" stroke-miterlimit="10"/></g><g transform="translate(2,-30) scale(1,1)"><path fill="none" stroke="#000000" d="M 134 197 L 294 239" stroke-miterlimit="10"/></g><g transform="translate(2,-30) scale(1,1)"><path fill="#C0C0C0" stroke="none" d="M 647 536 C 647 526.6111584 685.055792 519 732 519 C 778.944208 519 817 526.6111584 817 536 C 817 545.3888416 778.944208 553 732 553 C 685.055792 553 647 545.3888416 647 536 Z" opacity="0.2"/></g><g transform="translate(2,-30) scale(1,1)"><path fill="#ffffff" stroke="none" d="M 640 529 C 640 519.6111584 678.055792 512 725 512 C 771.944208 512 810 519.6111584 810 529 C 810 538.3888416 771.944208 546 725 546 C 678.055792 546 640 538.3888416 640 529 Z"/></g><g transform="translate(2,-30) scale(1,1)"><path fill="none" stroke="#000000" d="M 640 529 C 640 519.6111584 678.055792 512 725 512 C 771.944208 512 810 519.6111584 810 529 C 810 538.3888416 771.944208 546 725 546 C 678.055792 546 640 538.3888416 640 529 Z" stroke-miterlimit="10"/></g><g transform="translate(2,-30) scale(1,1)"><g><path fill="none" stroke="none"/><text fill="#000000" stroke="none" font-family="Arial" font-size="13px" font-style="normal" font-weight="bold" text-decoration="none" x="671.892333984375" y="536">Generate a Permit</text></g></g><g transform="translate(2,-30) scale(1,1)"><path fill="none" stroke="#000000" d="M 439 493 L 639 518" stroke-miterlimit="10" stroke-dasharray="3"/></g><g transform="translate(2,-30) scale(1,1)"><path fill="none" stroke="#000000" d="M 628.3936761529293 520.9164866622461 L 639 518 L 629.4379289881613 512.5624639803901" stroke-miterlimit="10"/></g><g transform="translate(2,-30) scale(1,1)"><g><path fill="none" stroke="none"/><text fill="#000000" stroke="none" font-family="Arial" font-size="13px" font-style="normal" font-weight="normal" text-decoration="none" x="552" y="509">«include»</text></g></g><g transform="translate(2,-30) scale(1,1)"><path fill="#C0C0C0" stroke="none" d="M 319 400 C 319 390.6111584 386.8288528 383 470.5 383 C 554.1711472 383 622 390.6111584 622 400 C 622 409.3888416 554.1711472 417 470.5 417 C 386.8288528 417 319 409.3888416 319 400 Z" opacity="0.2"/></g><g transform="translate(2,-30) scale(1,1)"><path fill="#ffffff" stroke="none" d="M 312 393 C 312 383.6111584 379.8288528 376 463.5 376 C 547.1711472 376 615 383.6111584 615 393 C 615 402.3888416 547.1711472 410 463.5 410 C 379.8288528 410 312 402.3888416 312 393 Z"/></g><g transform="translate(2,-30) scale(1,1)"><path fill="none" stroke="#000000" d="M 312 393 C 312 383.6111584 379.8288528 376 463.5 376 C 547.1711472 376 615 383.6111584 615 393 C 615 402.3888416 547.1711472 410 463.5 410 C 379.8288528 410 312 402.3888416 312 393 Z" stroke-miterlimit="10"/></g><g transform="translate(2,-30) scale(1,1)"><g><path fill="none" stroke="none"/><text fill="#000000" stroke="none" font-family="Arial" font-size="13px" font-style="normal" font-weight="bold" text-decoration="none" x="366.6728515625" y="400">Parking Status Red Yellow Green</text></g></g><g transform="translate(2,-30) scale(1,1)"><path fill="none" stroke="#000000" d="M 364 463 L 438 411" stroke-miterlimit="10" stroke-dasharray="3"/></g><g transform="translate(2,-30) scale(1,1)"><path fill="none" stroke="#000000" d="M 432.105227174942 420.2871768229617 L 438 411 L 427.2647404522525 413.3987918714421" stroke-miterlimit="10"/></g><g transform="translate(2,-30) scale(1,1)"><g><path fill="none" stroke="none"/><text fill="#000000" stroke="none" font-family="Arial" font-size="13px" font-style="normal" font-weight="normal" text-decoration="none" x="356" y="428">«include»</text></g></g><g transform="translate(2,-30) scale(1,1)"><path fill="#C0C0C0" stroke="none" d="M 399 688 C 399 678.6111584 441.9806592 671 495 671 C 548.0193408 671 591 678.6111584 591 688 C 591 697.3888416 548.0193408 705 495 705 C 441.9806592 705 399 697.3888416 399 688 Z" opacity="0.2"/></g><g transform="translate(2,-30) scale(1,1)"><path fill="#ffffff" stroke="none" d="M 392 681 C 392 671.6111584 434.9806592 664 488 664 C 541.0193408 664 584 671.6111584 584 681 C 584 690.3888416 541.0193408 698 488 698 C 434.9806592 698 392 690.3888416 392 681 Z"/></g><g transform="translate(2,-30) scale(1,1)"><path fill="none" stroke="#000000" d="M 392 681 C 392 671.6111584 434.9806592 664 488 664 C 541.0193408 664 584 671.6111584 584 681 C 584 690.3888416 541.0193408 698 488 698 C 434.9806592 698 392 690.3888416 392 681 Z" stroke-miterlimit="10"/></g><g transform="translate(2,-30) scale(1,1)"><g><path fill="none" stroke="none"/><text fill="#000000" stroke="none" font-family="Arial" font-size="13px" font-style="normal" font-weight="bold" text-decoration="none" x="428.74462890625" y="688">Bulk Update Parking</text></g></g><g transform="translate(2,-30) scale(1,1)"><path fill="none" stroke="#000000" d="M 336 499 L 319 599" stroke-miterlimit="10" stroke-dasharray="3"/></g><g transform="translate(2,-30) scale(1,1)"><path fill="none" stroke="#000000" d="M 316.5532408210241 588.275571366264 L 319 599 L 324.8531962038816 589.6865637813497" stroke-miterlimit="10"/></g><g transform="translate(2,-30) scale(1,1)"><g><path fill="none" stroke="none"/><text fill="#000000" stroke="none" font-family="Arial" font-size="13px" font-style="normal" font-weight="normal" text-decoration="none" x="327" y="560">«include»</text></g></g><g transform="translate(2,-30) scale(1,1)"><path fill="none" stroke="#000000" d="M 352 499 L 475 663" stroke-miterlimit="10" stroke-dasharray="3"/></g><g transform="translate(2,-30) scale(1,1)"><path fill="none" stroke="#000000" d="M 465.53478088061274 657.3955707675103 L 475 663 L 472.2700092902383 652.3441494602911" stroke-miterlimit="10"/></g><g transform="translate(2,-30) scale(1,1)"><g><path fill="none" stroke="none"/><text fill="#000000" stroke="none" font-family="Arial" font-size="13px" font-style="normal" font-weight="normal" text-decoration="none" x="426" y="607">«include»</text></g></g><g transform="translate(2,-30) scale(1,1)"><path fill="none" stroke="#000000" d="M 368 499 L 551 615" stroke-miterlimit="10" stroke-dasharray="3"/></g><g transform="translate(2,-30) scale(1,1)"><path fill="none" stroke="#000000" d="M 540.1628015468923 613.114494845417 L 551 615 L 544.670196965511 606.0036900039753" stroke-miterlimit="10"/></g><g transform="translate(2,-30) scale(1,1)"><g><path fill="none" stroke="none"/><text fill="#000000" stroke="none" font-family="Arial" font-size="13px" font-style="normal" font-weight="normal" text-decoration="none" x="456" y="557">«include»</text></g></g><g transform="translate(2,-30) scale(1,1)"><path fill="#C0C0C0" stroke="none" d="M 279 336 C 279 326.6111584 316.8319344 319 363.5 319 C 410.1680656 319 448 326.6111584 448 336 C 448 345.3888416 410.1680656 353 363.5 353 C 316.8319344 353 279 345.3888416 279 336 Z" opacity="0.2"/></g><g transform="translate(2,-30) scale(1,1)"><path fill="#ffffff" stroke="none" d="M 272 329 C 272 319.6111584 309.8319344 312 356.5 312 C 403.1680656 312 441 319.6111584 441 329 C 441 338.3888416 403.1680656 346 356.5 346 C 309.8319344 346 272 338.3888416 272 329 Z"/></g><g transform="translate(2,-30) scale(1,1)"><path fill="none" stroke="#000000" d="M 272 329 C 272 319.6111584 309.8319344 312 356.5 312 C 403.1680656 312 441 319.6111584 441 329 C 441 338.3888416 403.1680656 346 356.5 346 C 309.8319344 346 272 338.3888416 272 329 Z" stroke-miterlimit="10"/></g><g transform="translate(2,-30) scale(1,1)"><g><path fill="none" stroke="none"/><text fill="#000000" stroke="none" font-family="Arial" font-size="13px" font-style="normal" font-weight="bold" text-decoration="none" x="304.115966796875" y="336">View Parking Map</text></g></g><g transform="translate(2,-30) scale(1,1)"><path fill="none" stroke="#000000" d="M 119 500 L 331 347" stroke-miterlimit="10"/></g><g transform="translate(2,-30) scale(1,1)"><path fill="none" stroke="#000000" d="M 147 333 L 271 331" stroke-miterlimit="10"/></g><g transform="translate(2,-30) scale(1,1)"><path fill="none" stroke="#000000" d="M 134 212 L 322 311" stroke-miterlimit="10"/></g></g></svg>