<svg version="1.1" xmlns="http://www.w3.org/2000/svg" xmlns:xlink="http://www.w3.org/1999/xlink" width="1402.161865234375" height="1166"><defs/><g><g transform="translate(-10,-6) scale(1,1)"><path fill="#ffffff" stroke="none" d="M 56.5 16 L 112.578125 16 Q 129.078125 16 129.078125 32.5 L 129.078125 31.5 Q 129.078125 48 112.578125 48 L 56.5 48 Q 40 48 40 31.5 L 40 32.5 Q 40 16 56.5 16 Z"/></g><g transform="translate(-10,-6) scale(1,1)"><path fill="none" stroke="#000000" d="M 56.5 16 L 112.578125 16 Q 129.078125 16 129.078125 32.5 L 129.078125 31.5 Q 129.078125 48 112.578125 48 L 56.5 48 Q 40 48 40 31.5 L 40 32.5 Q 40 16 56.5 16 Z" stroke-miterlimit="10"/></g><g transform="translate(-10,-6) scale(1,1)"><g><path fill="none" stroke="none"/><text fill="#000000" stroke="none" font-family="Arial" font-size="13px" font-style="normal" font-weight="normal" text-decoration="none" x="63.233154296875" y="38.5">START</text></g></g><g transform="translate(-10,-6) scale(1,1)"><path fill="#ffffff" stroke="#000000" d="M 192 40 L 277.47900390625 40 L 277.47900390625 85 C 249.47900390625 71 220 95.5 192 78 L 192 40 Z" stroke-miterlimit="10"/></g><g transform="translate(-10,-6) scale(1,1)"><g><path fill="none" stroke="none"/><text fill="#000000" stroke="none" font-family="Arial" font-size="13px" font-style="normal" font-weight="normal" text-decoration="none" x="214.5126953125" y="59">LOGIN</text><text fill="#000000" stroke="none" font-family="Arial" font-size="13px" font-style="normal" font-weight="normal" text-decoration="none" x="216.67724609375" y="72">PAGE</text></g></g><g transform="translate(-10,-6) scale(1,1)"><rect fill="#ffffff" stroke="none" x="344" y="32" width="120" height="58"/></g><g transform="translate(-10,-6) scale(1,1)"><path fill="none" stroke="#000000" d="M 344 32 L 464 32 L 464 90 L 344 90 L 344 32 Z Z" stroke-miterlimit="10"/></g><g transform="translate(-10,-6) scale(1,1)"><g><path fill="none" stroke="none"/><text fill="#000000" stroke="none" font-family="Arial" font-size="13px" font-style="normal" font-weight="normal" text-decoration="none" x="359.937744140625" y="54.5">ENTER REGIS</text><text fill="#000000" stroke="none" font-family="Arial" font-size="13px" font-style="normal" font-weight="normal" text-decoration="none" x="361.02001953125" y="67.5">USERNAME &amp;</text><text fill="#000000" stroke="none" font-family="Arial" font-size="13px" font-style="normal" font-weight="normal" text-decoration="none" x="366.0791015625" y="80.5">PASSWORD</text></g></g><g transform="translate(-10,-6) scale(1,1)"><path fill="none" stroke="#000000" d="M 278 58 Q 296 56 343 58" stroke-miterlimit="10"/></g><g transform="translate(-10,-6) scale(1,1)"><path fill="#000000" stroke="none" d="M 332.66754736500866 61.773648439595306 L 343 58 L 333.0254802740569 53.36222507696068"/></g><g transform="translate(-10,-6) scale(1,1)"><path fill="none" stroke="#000000" d="M 332.66754736500866 61.773648439595306 L 343 58 L 333.0254802740569 53.36222507696068 L 332.66754736500866 61.773648439595306" stroke-miterlimit="10"/></g><g transform="translate(-10,-6) scale(1,1)"><path fill="none" stroke="#000000" d="M 130 45 Q 168 56 191 58" stroke-miterlimit="10"/></g><g transform="translate(-10,-6) scale(1,1)"><path fill="#000000" stroke="none" d="M 180.51086191391437 61.31330382111693 L 191 58 L 181.24019973048368 52.92591893056986"/></g><g transform="translate(-10,-6) scale(1,1)"><path fill="none" stroke="#000000" d="M 180.51086191391437 61.31330382111693 L 191 58 L 181.24019973048368 52.92591893056986 L 180.51086191391437 61.31330382111693" stroke-miterlimit="10"/></g><g transform="translate(-10,-6) scale(1,1)"><path fill="#ffffff" stroke="none" d="M 496 118.5 L 552.58447265625 104 L 609.1689453125 118.5 L 552.58447265625 133 L 496 118.5"/></g><g transform="translate(-10,-6) scale(1,1)"><path fill="none" stroke="#000000" d="M 496 118.5 L 552.58447265625 104 L 609.1689453125 118.5 L 552.58447265625 133 L 496 118.5 L 496 118.5" stroke-miterlimit="10"/></g><g transform="translate(-10,-6) scale(1,1)"><g><path fill="none" stroke="none"/><text fill="#000000" stroke="none" font-family="Arial" font-size="13px" font-style="normal" font-weight="normal" text-decoration="none" x="530.18359375" y="125">VALID?</text></g></g><g transform="translate(-10,-6) scale(1,1)"><path fill="none" stroke="#000000" d="M 465 62 Q 552 64 552 103" stroke-miterlimit="10"/></g><g transform="translate(-10,-6) scale(1,1)"><path fill="#000000" stroke="none" d="M 547.790482243984 92.83732514237585 L 552 103 L 556.209517756016 92.83732514237585"/></g><g transform="translate(-10,-6) scale(1,1)"><path fill="none" stroke="#000000" d="M 547.790482243984 92.83732514237585 L 552 103 L 556.209517756016 92.83732514237585 L 547.790482243984 92.83732514237585" stroke-miterlimit="10"/></g><g transform="translate(-10,-6) scale(1,1)"><path fill="none" stroke="#000000" d="M 495 125 Q 408 136 406 91" stroke-miterlimit="10"/></g><g transform="translate(-10,-6) scale(1,1)"><path fill="#000000" stroke="none" d="M 410.656595356531 100.96574732197911 L 406 91 L 402.2458626428818 101.33955766480797"/></g><g transform="translate(-10,-6) scale(1,1)"><path fill="none" stroke="#000000" d="M 410.656595356531 100.96574732197911 L 406 91 L 402.2458626428818 101.33955766480797 L 410.656595356531 100.96574732197911" stroke-miterlimit="10"/></g><g transform="translate(-10,-6) scale(1,1)"><g><path fill="none" stroke="none"/><text fill="#000000" stroke="none" font-family="Arial" font-size="13px" font-style="normal" font-weight="normal" text-decoration="none" x="439" y="141">NO</text></g></g><g transform="translate(-10,-6) scale(1,1)"><path fill="#ffffff" stroke="none" d="M 497.0576171875 188 L 553.64208984375 173.5 L 610.2265625 188 L 553.64208984375 202.5 L 497.0576171875 188"/></g><g transform="translate(-10,-6) scale(1,1)"><path fill="none" stroke="#000000" d="M 497.0576171875 188 L 553.64208984375 173.5 L 610.2265625 188 L 553.64208984375 202.5 L 497.0576171875 188 L 497.0576171875 188" stroke-miterlimit="10"/></g><g transform="translate(-10,-6) scale(1,1)"><g><path fill="none" stroke="none"/><text fill="#000000" stroke="none" font-family="Arial" font-size="13px" font-style="normal" font-weight="normal" text-decoration="none" x="529.0830078125" y="194.5">ADMIN?</text></g></g><g transform="translate(-10,-6) scale(1,1)"><path fill="none" stroke="#000000" d="M 553 134 Q 554 144 553 173" stroke-miterlimit="10"/></g><g transform="translate(-10,-6) scale(1,1)"><path fill="#000000" stroke="none" d="M 549.1432116044656 162.69829221575029 L 553 173 L 557.5572462039613 162.98843133987083"/></g><g transform="translate(-10,-6) scale(1,1)"><path fill="none" stroke="#000000" d="M 549.1432116044656 162.69829221575029 L 553 173 L 557.5572462039613 162.98843133987083 L 549.1432116044656 162.69829221575029" stroke-miterlimit="10"/></g><g transform="translate(-10,-6) scale(1,1)"><g><path fill="none" stroke="none"/><text fill="#000000" stroke="none" font-family="Arial" font-size="13px" font-style="normal" font-weight="normal" text-decoration="none" x="558" y="157">YES</text></g></g><g transform="translate(-10,-6) scale(1,1)"><path fill="#ffffff" stroke="#000000" d="M 114.3175048828125 248 L 199.7965087890625 248 L 199.7965087890625 293 C 171.7965087890625 279 142.3175048828125 303.5 114.3175048828125 286 L 114.3175048828125 248 Z" stroke-miterlimit="10"/></g><g transform="translate(-10,-6) scale(1,1)"><g><path fill="none" stroke="none"/><text fill="#000000" stroke="none" font-family="Arial" font-size="13px" font-style="normal" font-weight="normal" text-decoration="none" x="140.8070068359375" y="267">MAIN</text><text fill="#000000" stroke="none" font-family="Arial" font-size="13px" font-style="normal" font-weight="normal" text-decoration="none" x="138.9947509765625" y="280">PAGE</text></g></g><g transform="translate(-10,-6) scale(1,1)"><path fill="#ffffff" stroke="#000000" d="M 866.532958984375 248 L 960 248 L 960 293 C 929 279 897.532958984375 303.5 866.532958984375 286 L 866.532958984375 248 Z" stroke-miterlimit="10"/></g><g transform="translate(-10,-6) scale(1,1)"><g><path fill="none" stroke="none"/><text fill="#000000" stroke="none" font-family="Arial" font-size="13px" font-style="normal" font-weight="normal" text-decoration="none" x="892.3223876953125" y="267">ADMIN</text><text fill="#000000" stroke="none" font-family="Arial" font-size="13px" font-style="normal" font-weight="normal" text-decoration="none" x="895.2042236328125" y="280">PAGE</text></g></g><g transform="translate(-10,-6) scale(1,1)"><path fill="none" stroke="#000000" d="M 496 194 Q 158 233 158 247" stroke-miterlimit="10"/></g><g transform="translate(-10,-6) scale(1,1)"><path fill="#000000" stroke="none" d="M 153.790482243984 236.83732514237585 L 158 247 L 162.209517756016 236.83732514237585"/></g><g transform="translate(-10,-6) scale(1,1)"><path fill="none" stroke="#000000" d="M 153.790482243984 236.83732514237585 L 158 247 L 162.209517756016 236.83732514237585 L 153.790482243984 236.83732514237585" stroke-miterlimit="10"/></g><g transform="translate(-10,-6) scale(1,1)"><g><path fill="none" stroke="none"/><text fill="#000000" stroke="none" font-family="Arial" font-size="13px" font-style="normal" font-weight="normal" text-decoration="none" x="304" y="213">NO</text></g></g><g transform="translate(-10,-6) scale(1,1)"><path fill="none" stroke="#000000" d="M 611 195 Q 910 233 911 247" stroke-miterlimit="10"/></g><g transform="translate(-10,-6) scale(1,1)"><path fill="#000000" stroke="none" d="M 906.0771192885778 237.1630672716996 L 911 247 L 914.4747595042381 236.56323582772384"/></g><g transform="translate(-10,-6) scale(1,1)"><path fill="none" stroke="#000000" d="M 906.0771192885778 237.1630672716996 L 911 247 L 914.4747595042381 236.56323582772384 L 906.0771192885778 237.1630672716996" stroke-miterlimit="10"/></g><g transform="translate(-10,-6) scale(1,1)"><g><path fill="none" stroke="none"/><text fill="#000000" stroke="none" font-family="Arial" font-size="13px" font-style="normal" font-weight="normal" text-decoration="none" x="751" y="212">YES</text></g></g><g transform="translate(-10,-6) scale(1,1)"><rect fill="#ffffff" stroke="none" x="20" y="337" width="120.8544921875" height="45"/></g><g transform="translate(-10,-6) scale(1,1)"><path fill="none" stroke="#000000" d="M 20 337 L 140.8544921875 337 L 140.8544921875 382 L 20 382 L 20 337 Z Z" stroke-miterlimit="10"/></g><g transform="translate(-10,-6) scale(1,1)"><g><path fill="none" stroke="none"/><text fill="#000000" stroke="none" font-family="Arial" font-size="13px" font-style="normal" font-weight="normal" text-decoration="none" x="31.6708984375" y="359.5">VIEW EXISTING</text><text fill="#000000" stroke="none" font-family="Arial" font-size="13px" font-style="normal" font-weight="normal" text-decoration="none" x="29.5" y="372.5">RESERVATIONS</text></g></g><g transform="translate(-10,-6) scale(1,1)"><rect fill="#ffffff" stroke="none" x="177.594970703125" y="337" width="112.18359375" height="45"/></g><g transform="translate(-10,-6) scale(1,1)"><path fill="none" stroke="#000000" d="M 177.594970703125 337 L 289.778564453125 337 L 289.778564453125 382 L 177.594970703125 382 L 177.594970703125 337 Z Z" stroke-miterlimit="10"/></g><g transform="translate(-10,-6) scale(1,1)"><g><path fill="none" stroke="none"/><text fill="#000000" stroke="none" font-family="Arial" font-size="13px" font-style="normal" font-weight="normal" text-decoration="none" x="198.29541015625" y="359.5">MAKE NEW</text><text fill="#000000" stroke="none" font-family="Arial" font-size="13px" font-style="normal" font-weight="normal" text-decoration="none" x="187.094970703125" y="372.5">RESERVATION</text></g></g><g transform="translate(-10,-6) scale(1,1)"><path fill="none" stroke="#000000" d="M 113 292 Q 81 309 80 336" stroke-miterlimit="10"/></g><g transform="translate(-10,-6) scale(1,1)"><path fill="#000000" stroke="none" d="M 76.16950393511131 325.6884870219316 L 80 336 L 84.58277100829406 326.0000895061236"/></g><g transform="translate(-10,-6) scale(1,1)"><path fill="none" stroke="#000000" d="M 76.16950393511131 325.6884870219316 L 80 336 L 84.58277100829406 326.0000895061236 L 76.16950393511131 325.6884870219316" stroke-miterlimit="10"/></g><g transform="translate(-10,-6) scale(1,1)"><path fill="none" stroke="#000000" d="M 201 292 Q 234 309 233 336" stroke-miterlimit="10"/></g><g transform="translate(-10,-6) scale(1,1)"><path fill="#000000" stroke="none" d="M 229.16950393511132 325.6884870219316 L 233 336 L 237.58277100829406 326.0000895061236"/></g><g transform="translate(-10,-6) scale(1,1)"><path fill="none" stroke="#000000" d="M 229.16950393511132 325.6884870219316 L 233 336 L 237.58277100829406 326.0000895061236 L 229.16950393511132 325.6884870219316" stroke-miterlimit="10"/></g><g transform="translate(-10,-6) scale(1,1)"><path fill="#ffffff" stroke="none" d="M 52.38818359375 691.5 L 108.46630859375 691.5 Q 124.96630859375 691.5 124.96630859375 708 L 124.96630859375 707 Q 124.96630859375 723.5 108.46630859375 723.5 L 52.38818359375 723.5 Q 35.88818359375 723.5 35.88818359375 707 L 35.88818359375 708 Q 35.88818359375 691.5 52.38818359375 691.5 Z"/></g><g transform="translate(-10,-6) scale(1,1)"><path fill="none" stroke="#000000" d="M 52.38818359375 691.5 L 108.46630859375 691.5 Q 124.96630859375 691.5 124.96630859375 708 L 124.96630859375 707 Q 124.96630859375 723.5 108.46630859375 723.5 L 52.38818359375 723.5 Q 35.88818359375 723.5 35.88818359375 707 L 35.88818359375 708 Q 35.88818359375 691.5 52.38818359375 691.5 Z" stroke-miterlimit="10"/></g><g transform="translate(-10,-6) scale(1,1)"><g><path fill="none" stroke="none"/><text fill="#000000" stroke="none" font-family="Arial" font-size="13px" font-style="normal" font-weight="normal" text-decoration="none" x="52.97998046875" y="714">LOGOUT</text></g></g><g transform="translate(-10,-6) scale(1,1)"><rect fill="#ffffff" stroke="none" x="22.167724609375" y="586.5" width="116.51904296875" height="58"/></g><g transform="translate(-10,-6) scale(1,1)"><path fill="none" stroke="#000000" d="M 22.167724609375 586.5 L 138.686767578125 586.5 L 138.686767578125 644.5 L 22.167724609375 644.5 L 22.167724609375 586.5 Z Z" stroke-miterlimit="10"/></g><g transform="translate(-10,-6) scale(1,1)"><g><path fill="none" stroke="none"/><text fill="#000000" stroke="none" font-family="Arial" font-size="13px" font-style="normal" font-weight="normal" text-decoration="none" x="49.00634765625" y="609">REQUEST</text><text fill="#000000" stroke="none" font-family="Arial" font-size="13px" font-style="normal" font-weight="normal" text-decoration="none" x="31.667724609375" y="622">REPLACEMENT</text><text fill="#000000" stroke="none" font-family="Arial" font-size="13px" font-style="normal" font-weight="normal" text-decoration="none" x="55.871337890625" y="635">PERMIT</text></g></g><g transform="translate(-10,-6) scale(1,1)"><path fill="none" stroke="#000000" d="M 81 646 Q 81 667 80 691" stroke-miterlimit="10"/></g><g transform="translate(-10,-6) scale(1,1)"><path fill="#000000" stroke="none" d="M 76.2172092782506 680.670890921505 L 80 691 L 84.62894610186076 681.0213799558221"/></g><g transform="translate(-10,-6) scale(1,1)"><path fill="none" stroke="#000000" d="M 76.2172092782506 680.670890921505 L 80 691 L 84.62894610186076 681.0213799558221 L 76.2172092782506 680.670890921505" stroke-miterlimit="10"/></g><g transform="translate(-10,-6) scale(1,1)"><path fill="#ffffff" stroke="none" d="M 175.674072265625 707.5 L 233.686767578125 682 L 291.699462890625 707.5 L 233.686767578125 733 L 175.674072265625 707.5"/></g><g transform="translate(-10,-6) scale(1,1)"><path fill="none" stroke="#000000" d="M 175.674072265625 707.5 L 233.686767578125 682 L 291.699462890625 707.5 L 233.686767578125 733 L 175.674072265625 707.5 L 175.674072265625 707.5" stroke-miterlimit="10"/></g><g transform="translate(-10,-6) scale(1,1)"><g><path fill="none" stroke="none"/><text fill="#000000" stroke="none" font-family="Arial" font-size="13px" font-style="normal" font-weight="normal" text-decoration="none" x="204.430419921875" y="707.5">PARKING</text><text fill="#000000" stroke="none" font-family="Arial" font-size="13px" font-style="normal" font-weight="normal" text-decoration="none" x="214.17724609375" y="720.5">FULL?</text></g></g><g transform="translate(-10,-6) scale(1,1)"><path fill="none" stroke="#000000" d="M 233 383 Q 234 411 233 458" stroke-miterlimit="10"/></g><g transform="translate(-10,-6) scale(1,1)"><path fill="#000000" stroke="none" d="M 229.0076129302576 447.7500807083493 L 233 458 L 237.42474346760469 447.9291685921226"/></g><g transform="translate(-10,-6) scale(1,1)"><path fill="none" stroke="#000000" d="M 229.0076129302576 447.7500807083493 L 233 458 L 237.42474346760469 447.9291685921226 L 229.0076129302576 447.7500807083493" stroke-miterlimit="10"/></g><g transform="translate(-10,-6) scale(1,1)"><rect fill="#ffffff" stroke="none" x="169.686767578125" y="580" width="128" height="71"/></g><g transform="translate(-10,-6) scale(1,1)"><path fill="none" stroke="#000000" d="M 169.686767578125 580 L 297.686767578125 580 L 297.686767578125 651 L 169.686767578125 651 L 169.686767578125 580 Z Z" stroke-miterlimit="10"/></g><g transform="translate(-10,-6) scale(1,1)"><g><path fill="none" stroke="none"/><text fill="#000000" stroke="none" font-family="Arial" font-size="13px" font-style="normal" font-weight="normal" text-decoration="none" x="205.515869140625" y="602.5">ENTER &amp;</text><text fill="#000000" stroke="none" font-family="Arial" font-size="13px" font-style="normal" font-weight="normal" text-decoration="none" x="191.798583984375" y="615.5">SUBMIT INFO</text><text fill="#000000" stroke="none" font-family="Arial" font-size="13px" font-style="normal" font-weight="normal" text-decoration="none" x="202.995849609375" y="628.5">FOR NEW</text><text fill="#000000" stroke="none" font-family="Arial" font-size="13px" font-style="normal" font-weight="normal" text-decoration="none" x="187.094970703125" y="641.5">RESERVATION</text></g></g><g transform="translate(-10,-6) scale(1,1)"><path fill="#ffffff" stroke="#000000" d="M 24.33544921875 458.5 L 136.51904296875 458.5 L 136.51904296875 516.5 C 99.51904296875 498.5 61.33544921875 530 24.33544921875 507.5 L 24.33544921875 458.5 Z" stroke-miterlimit="10"/></g><g transform="translate(-10,-6) scale(1,1)"><g><path fill="none" stroke="none"/><text fill="#000000" stroke="none" font-family="Arial" font-size="13px" font-style="normal" font-weight="normal" text-decoration="none" x="63.8154296875" y="476.5">VIEW</text><text fill="#000000" stroke="none" font-family="Arial" font-size="13px" font-style="normal" font-weight="normal" text-decoration="none" x="33.83544921875" y="489.5">RESERVATION</text><text fill="#000000" stroke="none" font-family="Arial" font-size="13px" font-style="normal" font-weight="normal" text-decoration="none" x="62.364990234375" y="502.5">PAGE</text></g></g><g transform="translate(-10,-6) scale(1,1)"><path fill="none" stroke="#000000" d="M 80 383 Q 81 411 80 458" stroke-miterlimit="10"/></g><g transform="translate(-10,-6) scale(1,1)"><path fill="#000000" stroke="none" d="M 76.0076129302576 447.7500807083493 L 80 458 L 84.4247434676047 447.9291685921226"/></g><g transform="translate(-10,-6) scale(1,1)"><path fill="none" stroke="#000000" d="M 76.0076129302576 447.7500807083493 L 80 458 L 84.4247434676047 447.9291685921226 L 76.0076129302576 447.7500807083493" stroke-miterlimit="10"/></g><g transform="translate(-10,-6) scale(1,1)"><path fill="none" stroke="#000000" d="M 80 518 Q 81 565 81 586" stroke-miterlimit="10"/></g><g transform="translate(-10,-6) scale(1,1)"><path fill="#000000" stroke="none" d="M 76.79048224398402 575.8373251423759 L 81 586 L 85.20951775601598 575.8373251423759"/></g><g transform="translate(-10,-6) scale(1,1)"><path fill="none" stroke="#000000" d="M 76.79048224398402 575.8373251423759 L 81 586 L 85.20951775601598 575.8373251423759 L 76.79048224398402 575.8373251423759" stroke-miterlimit="10"/></g><g transform="translate(-10,-6) scale(1,1)"><path fill="#ffffff" stroke="#000000" d="M 177.594970703125 458.5 L 289.778564453125 458.5 L 289.778564453125 516.5 C 252.778564453125 498.5 214.594970703125 530 177.594970703125 507.5 L 177.594970703125 458.5 Z" stroke-miterlimit="10"/></g><g transform="translate(-10,-6) scale(1,1)"><g><path fill="none" stroke="none"/><text fill="#000000" stroke="none" font-family="Arial" font-size="13px" font-style="normal" font-weight="normal" text-decoration="none" x="218.522216796875" y="476.5">NEW</text><text fill="#000000" stroke="none" font-family="Arial" font-size="13px" font-style="normal" font-weight="normal" text-decoration="none" x="187.094970703125" y="489.5">RESERVATION</text><text fill="#000000" stroke="none" font-family="Arial" font-size="13px" font-style="normal" font-weight="normal" text-decoration="none" x="215.62451171875" y="502.5">PAGE</text></g></g><g transform="translate(-10,-6) scale(1,1)"><path fill="none" stroke="#000000" d="M 233 518 Q 234 565 234 579" stroke-miterlimit="10"/></g><g transform="translate(-10,-6) scale(1,1)"><path fill="#000000" stroke="none" d="M 229.790482243984 568.8373251423759 L 234 579 L 238.209517756016 568.8373251423759"/></g><g transform="translate(-10,-6) scale(1,1)"><path fill="none" stroke="#000000" d="M 229.790482243984 568.8373251423759 L 234 579 L 238.209517756016 568.8373251423759 L 229.790482243984 568.8373251423759" stroke-miterlimit="10"/></g><g transform="translate(-10,-6) scale(1,1)"><path fill="none" stroke="#000000" d="M 234 652 Q 234 667 234 681" stroke-miterlimit="10"/></g><g transform="translate(-10,-6) scale(1,1)"><path fill="#000000" stroke="none" d="M 229.790482243984 670.8373251423759 L 234 681 L 238.209517756016 670.8373251423759"/></g><g transform="translate(-10,-6) scale(1,1)"><path fill="none" stroke="#000000" d="M 229.790482243984 670.8373251423759 L 234 681 L 238.209517756016 670.8373251423759 L 229.790482243984 670.8373251423759" stroke-miterlimit="10"/></g><g transform="translate(-10,-6) scale(1,1)"><path fill="#ffffff" stroke="#000000" d="M 272 864 L 384.18359375 864 L 384.18359375 935 C 347.18359375 913 309 951.5 272 924 L 272 864 Z" stroke-miterlimit="10"/></g><g transform="translate(-10,-6) scale(1,1)"><g><path fill="none" stroke="none"/><text fill="#000000" stroke="none" font-family="Arial" font-size="13px" font-style="normal" font-weight="normal" text-decoration="none" x="281.5" y="880.5">RESERVATION</text><text fill="#000000" stroke="none" font-family="Arial" font-size="13px" font-style="normal" font-weight="normal" text-decoration="none" x="290.535888671875" y="893.5">SUBMITTED</text><text fill="#000000" stroke="none" font-family="Arial" font-size="13px" font-style="normal" font-weight="normal" text-decoration="none" x="286.924072265625" y="906.5">FOR REVIEW</text><text fill="#000000" stroke="none" font-family="Arial" font-size="13px" font-style="normal" font-weight="normal" text-decoration="none" x="310.029541015625" y="919.5">PAGE</text></g></g><g transform="translate(-10,-6) scale(1,1)"><path fill="#ffffff" stroke="#000000" d="M 147.405029296875 764 L 232.884033203125 764 L 232.884033203125 822 C 204.884033203125 804 175.405029296875 835.5 147.405029296875 813 L 147.405029296875 764 Z" stroke-miterlimit="10"/></g><g transform="translate(-10,-6) scale(1,1)"><g><path fill="none" stroke="none"/><text fill="#000000" stroke="none" font-family="Arial" font-size="13px" font-style="normal" font-weight="normal" text-decoration="none" x="162.341796875" y="782">WAITING</text><text fill="#000000" stroke="none" font-family="Arial" font-size="13px" font-style="normal" font-weight="normal" text-decoration="none" x="176.417724609375" y="795">LIST</text><text fill="#000000" stroke="none" font-family="Arial" font-size="13px" font-style="normal" font-weight="normal" text-decoration="none" x="172.082275390625" y="808">PAGE</text></g></g><g transform="translate(-10,-6) scale(1,1)"><path fill="none" stroke="#000000" d="M 262 734 Q 278 749 316 863" stroke-miterlimit="10"/></g><g transform="translate(-10,-6) scale(1,1)"><path fill="#000000" stroke="none" d="M 308.7927808450386 854.6900064950472 L 316 863 L 316.77977922099745 852.0276737030609"/></g><g transform="translate(-10,-6) scale(1,1)"><path fill="none" stroke="#000000" d="M 308.7927808450386 854.6900064950472 L 316 863 L 316.77977922099745 852.0276737030609 L 308.7927808450386 854.6900064950472" stroke-miterlimit="10"/></g><g transform="translate(-10,-6) scale(1,1)"><g><path fill="none" stroke="none"/><text fill="#000000" stroke="none" font-family="Arial" font-size="13px" font-style="normal" font-weight="normal" text-decoration="none" x="283" y="751">NO</text></g></g><g transform="translate(-10,-6) scale(1,1)"><path fill="none" stroke="#000000" d="M 206 734 Q 191 749 191 763" stroke-miterlimit="10"/></g><g transform="translate(-10,-6) scale(1,1)"><path fill="#000000" stroke="none" d="M 186.790482243984 752.8373251423759 L 191 763 L 195.209517756016 752.8373251423759"/></g><g transform="translate(-10,-6) scale(1,1)"><path fill="none" stroke="#000000" d="M 186.790482243984 752.8373251423759 L 191 763 L 195.209517756016 752.8373251423759 L 186.790482243984 752.8373251423759" stroke-miterlimit="10"/></g><g transform="translate(-10,-6) scale(1,1)"><g><path fill="none" stroke="none"/><text fill="#000000" stroke="none" font-family="Arial" font-size="13px" font-style="normal" font-weight="normal" text-decoration="none" x="167" y="740">YES</text></g></g><g transform="translate(-10,-6) scale(1,1)"><path fill="#ffffff" stroke="none" d="M 133.56005859375 904.5 L 190.14453125 853 L 246.72900390625 904.5 L 190.14453125 956 L 133.56005859375 904.5"/></g><g transform="translate(-10,-6) scale(1,1)"><path fill="none" stroke="#000000" d="M 133.56005859375 904.5 L 190.14453125 853 L 246.72900390625 904.5 L 190.14453125 956 L 133.56005859375 904.5 L 133.56005859375 904.5" stroke-miterlimit="10"/></g><g transform="translate(-10,-6) scale(1,1)"><g><path fill="none" stroke="none"/><text fill="#000000" stroke="none" font-family="Arial" font-size="13px" font-style="normal" font-weight="normal" text-decoration="none" x="168.8291015625" y="891.5">PLACE</text><text fill="#000000" stroke="none" font-family="Arial" font-size="13px" font-style="normal" font-weight="normal" text-decoration="none" x="180.39453125" y="904.5">ON</text><text fill="#000000" stroke="none" font-family="Arial" font-size="13px" font-style="normal" font-weight="normal" text-decoration="none" x="162.341796875" y="917.5">WAITING</text><text fill="#000000" stroke="none" font-family="Arial" font-size="13px" font-style="normal" font-weight="normal" text-decoration="none" x="172.802734375" y="930.5">LIST?</text></g></g><g transform="translate(-10,-6) scale(1,1)"><path fill="none" stroke="#000000" d="M 191 823 Q 191 838 191 852" stroke-miterlimit="10"/></g><g transform="translate(-10,-6) scale(1,1)"><path fill="#000000" stroke="none" d="M 186.790482243984 841.8373251423759 L 191 852 L 195.209517756016 841.8373251423759"/></g><g transform="translate(-10,-6) scale(1,1)"><path fill="none" stroke="#000000" d="M 186.790482243984 841.8373251423759 L 191 852 L 195.209517756016 841.8373251423759 L 186.790482243984 841.8373251423759" stroke-miterlimit="10"/></g><g transform="translate(-10,-6) scale(1,1)"><rect fill="#ffffff" stroke="none" x="56" y="984" width="74.60546875" height="71"/></g><g transform="translate(-10,-6) scale(1,1)"><path fill="none" stroke="#000000" d="M 56 984 L 130.60546875 984 L 130.60546875 1055 L 56 1055 L 56 984 Z Z" stroke-miterlimit="10"/></g><g transform="translate(-10,-6) scale(1,1)"><g><path fill="none" stroke="none"/><text fill="#000000" stroke="none" font-family="Arial" font-size="13px" font-style="normal" font-weight="normal" text-decoration="none" x="79.5791015625" y="1006.5">ADD</text><text fill="#000000" stroke="none" font-family="Arial" font-size="13px" font-style="normal" font-weight="normal" text-decoration="none" x="66.944091796875" y="1019.5">INFO TO</text><text fill="#000000" stroke="none" font-family="Arial" font-size="13px" font-style="normal" font-weight="normal" text-decoration="none" x="65.5" y="1032.5">WAITING</text><text fill="#000000" stroke="none" font-family="Arial" font-size="13px" font-style="normal" font-weight="normal" text-decoration="none" x="79.575927734375" y="1045.5">LIST</text></g></g><g transform="translate(-10,-6) scale(1,1)"><path fill="#ffffff" stroke="none" d="M 228.594970703125 1089 L 268.778564453125 1089 Q 304.778564453125 1089 304.778564453125 1125 L 304.778564453125 1124 Q 304.778564453125 1160 268.778564453125 1160 L 228.594970703125 1160 Q 192.594970703125 1160 192.594970703125 1124 L 192.594970703125 1125 Q 192.594970703125 1089 228.594970703125 1089 Z"/></g><g transform="translate(-10,-6) scale(1,1)"><path fill="none" stroke="#000000" d="M 228.594970703125 1089 L 268.778564453125 1089 Q 304.778564453125 1089 304.778564453125 1125 L 304.778564453125 1124 Q 304.778564453125 1160 268.778564453125 1160 L 228.594970703125 1160 Q 192.594970703125 1160 192.594970703125 1124 L 192.594970703125 1125 Q 192.594970703125 1089 228.594970703125 1089 Z" stroke-miterlimit="10"/></g><g transform="translate(-10,-6) scale(1,1)"><g><path fill="none" stroke="none"/><text fill="#000000" stroke="none" font-family="Arial" font-size="13px" font-style="normal" font-weight="normal" text-decoration="none" x="220.154052734375" y="1111.5">BACK TO</text><text fill="#000000" stroke="none" font-family="Arial" font-size="13px" font-style="normal" font-weight="normal" text-decoration="none" x="202.094970703125" y="1124.5">RESERVATION</text><text fill="#000000" stroke="none" font-family="Arial" font-size="13px" font-style="normal" font-weight="normal" text-decoration="none" x="219.068603515625" y="1137.5">PAGE OR</text><text fill="#000000" stroke="none" font-family="Arial" font-size="13px" font-style="normal" font-weight="normal" text-decoration="none" x="221.239501953125" y="1150.5">LOGOUT</text></g></g><g transform="translate(-10,-6) scale(1,1)"><path fill="none" stroke="#000000" d="M 133 904 Q 96 904 94 983" stroke-miterlimit="10"/></g><g transform="translate(-10,-6) scale(1,1)"><path fill="#000000" stroke="none" d="M 90.0490310822491 972.7340443888079 L 94 983 L 98.46536991403508 972.9471162579671"/></g><g transform="translate(-10,-6) scale(1,1)"><path fill="none" stroke="#000000" d="M 90.0490310822491 972.7340443888079 L 94 983 L 98.46536991403508 972.9471162579671 L 90.0490310822491 972.7340443888079" stroke-miterlimit="10"/></g><g transform="translate(-10,-6) scale(1,1)"><g><path fill="none" stroke="none"/><text fill="#000000" stroke="none" font-family="Arial" font-size="13px" font-style="normal" font-weight="normal" text-decoration="none" x="71" y="925">YES</text></g></g><g transform="translate(-10,-6) scale(1,1)"><path fill="none" stroke="#000000" d="M 191 957 Q 191 972 191 1023 Q 191 1074 207 1088" stroke-miterlimit="10"/></g><g transform="translate(-10,-6) scale(1,1)"><path fill="#000000" stroke="none" d="M 196.57982090702765 1084.4758167371174 L 207 1088 L 202.1237945855094 1078.1398468188524"/></g><g transform="translate(-10,-6) scale(1,1)"><path fill="none" stroke="#000000" d="M 196.57982090702765 1084.4758167371174 L 207 1088 L 202.1237945855094 1078.1398468188524 L 196.57982090702765 1084.4758167371174" stroke-miterlimit="10"/></g><g transform="translate(-10,-6) scale(1,1)"><g><path fill="none" stroke="none"/><text fill="#000000" stroke="none" font-family="Arial" font-size="13px" font-style="normal" font-weight="normal" text-decoration="none" x="196" y="997">NO</text></g></g><g transform="translate(-10,-6) scale(1,1)"><path fill="none" stroke="#000000" d="M 317 936 Q 278 1074 270 1088" stroke-miterlimit="10"/></g><g transform="translate(-10,-6) scale(1,1)"><path fill="#000000" stroke="none" d="M 271.3872137914153 1077.0878215787632 L 270 1088 L 278.69698363803934 1081.2648329196911"/></g><g transform="translate(-10,-6) scale(1,1)"><path fill="none" stroke="#000000" d="M 271.3872137914153 1077.0878215787632 L 270 1088 L 278.69698363803934 1081.2648329196911 L 271.3872137914153 1077.0878215787632" stroke-miterlimit="10"/></g><g transform="translate(-10,-6) scale(1,1)"><path fill="none" stroke="#000000" d="M 132 1045 L 195 1088" stroke-miterlimit="10"/></g><g transform="translate(-10,-6) scale(1,1)"><path fill="#000000" stroke="none" d="M 184.23305144250088 1085.7477081094655 L 195 1088 L 188.97922853131413 1078.7940067932973"/></g><g transform="translate(-10,-6) scale(1,1)"><path fill="none" stroke="#000000" d="M 184.23305144250088 1085.7477081094655 L 195 1088 L 188.97922853131413 1078.7940067932973 L 184.23305144250088 1085.7477081094655" stroke-miterlimit="10"/></g><g transform="translate(-10,-6) scale(1,1)"><rect fill="#ffffff" stroke="none" x="683.532958984375" y="324" width="152" height="71"/></g><g transform="translate(-10,-6) scale(1,1)"><path fill="none" stroke="#000000" d="M 683.532958984375 324 L 835.532958984375 324 L 835.532958984375 395 L 683.532958984375 395 L 683.532958984375 324 Z Z" stroke-miterlimit="10"/></g><g transform="translate(-10,-6) scale(1,1)"><g><path fill="none" stroke="none"/><text fill="#000000" stroke="none" font-family="Arial" font-size="13px" font-style="normal" font-weight="normal" text-decoration="none" x="698.125732421875" y="346.5">APPROVE DECLINE</text><text fill="#000000" stroke="none" font-family="Arial" font-size="13px" font-style="normal" font-weight="normal" text-decoration="none" x="722.691162109375" y="359.5">OR DELETE</text><text fill="#000000" stroke="none" font-family="Arial" font-size="13px" font-style="normal" font-weight="normal" text-decoration="none" x="730.276611328125" y="372.5">PARKING</text><text fill="#000000" stroke="none" font-family="Arial" font-size="13px" font-style="normal" font-weight="normal" text-decoration="none" x="723.776611328125" y="385.5">REQUESTS</text></g></g><g transform="translate(-10,-6) scale(1,1)"><path fill="#ffffff" stroke="#000000" d="M 369.80126953125 337 L 455.2802734375 337 L 455.2802734375 382 C 427.2802734375 368 397.80126953125 392.5 369.80126953125 375 L 369.80126953125 337 Z" stroke-miterlimit="10"/></g><g transform="translate(-10,-6) scale(1,1)"><g><path fill="none" stroke="none"/><text fill="#000000" stroke="none" font-family="Arial" font-size="13px" font-style="normal" font-weight="normal" text-decoration="none" x="390.146240234375" y="356">USERS</text><text fill="#000000" stroke="none" font-family="Arial" font-size="13px" font-style="normal" font-weight="normal" text-decoration="none" x="394.478515625" y="369">PAGE</text></g></g><g transform="translate(-10,-6) scale(1,1)"><path fill="#ffffff" stroke="#000000" d="M 535.302978515625 337 L 652.532958984375 337 L 652.532958984375 382 C 613.532958984375 368 574.302978515625 392.5 535.302978515625 375 L 535.302978515625 337 Z" stroke-miterlimit="10"/></g><g transform="translate(-10,-6) scale(1,1)"><g><path fill="none" stroke="none"/><text fill="#000000" stroke="none" font-family="Arial" font-size="13px" font-style="normal" font-weight="normal" text-decoration="none" x="544.802978515625" y="356">DEPARTMENTS</text><text fill="#000000" stroke="none" font-family="Arial" font-size="13px" font-style="normal" font-weight="normal" text-decoration="none" x="575.855712890625" y="369">PAGE</text></g></g><g transform="translate(-10,-6) scale(1,1)"><path fill="#ffffff" stroke="#000000" d="M 1297.925537109375 330.5 L 1402.161865234375 330.5 L 1402.161865234375 388.5 C 1368.161865234375 370.5 1331.925537109375 402 1297.925537109375 379.5 L 1297.925537109375 330.5 Z" stroke-miterlimit="10"/></g><g transform="translate(-10,-6) scale(1,1)"><g><path fill="none" stroke="none"/><text fill="#000000" stroke="none" font-family="Arial" font-size="13px" font-style="normal" font-weight="normal" text-decoration="none" x="1339.56689453125" y="348.5">VIP</text><text fill="#000000" stroke="none" font-family="Arial" font-size="13px" font-style="normal" font-weight="normal" text-decoration="none" x="1307.425537109375" y="361.5">CATEGORIES</text><text fill="#000000" stroke="none" font-family="Arial" font-size="13px" font-style="normal" font-weight="normal" text-decoration="none" x="1331.9814453125" y="374.5">PAGE</text></g></g><g transform="translate(-10,-6) scale(1,1)"><path fill="#ffffff" stroke="#000000" d="M 866.532958984375 337 L 952.011962890625 337 L 952.011962890625 382 C 924.011962890625 368 894.532958984375 392.5 866.532958984375 375 L 866.532958984375 337 Z" stroke-miterlimit="10"/></g><g transform="translate(-10,-6) scale(1,1)"><g><path fill="none" stroke="none"/><text fill="#000000" stroke="none" font-family="Arial" font-size="13px" font-style="normal" font-weight="normal" text-decoration="none" x="877.8515625" y="356">REPORTS</text><text fill="#000000" stroke="none" font-family="Arial" font-size="13px" font-style="normal" font-weight="normal" text-decoration="none" x="891.210205078125" y="369">PAGE</text></g></g><g transform="translate(-10,-6) scale(1,1)"><path fill="#ffffff" stroke="#000000" d="M 1016.407470703125 330.5 L 1101.886474609375 330.5 L 1101.886474609375 388.5 C 1073.886474609375 370.5 1044.407470703125 402 1016.407470703125 379.5 L 1016.407470703125 330.5 Z" stroke-miterlimit="10"/></g><g transform="translate(-10,-6) scale(1,1)"><g><path fill="none" stroke="none"/><text fill="#000000" stroke="none" font-family="Arial" font-size="13px" font-style="normal" font-weight="normal" text-decoration="none" x="1042.1669921875" y="348.5">BULK</text><text fill="#000000" stroke="none" font-family="Arial" font-size="13px" font-style="normal" font-weight="normal" text-decoration="none" x="1035.3115234375" y="361.5">INSERT</text><text fill="#000000" stroke="none" font-family="Arial" font-size="13px" font-style="normal" font-weight="normal" text-decoration="none" x="1041.084716796875" y="374.5">PAGE</text></g></g><g transform="translate(-10,-6) scale(1,1)"><path fill="#ffffff" stroke="#000000" d="M 1168.09423828125 330.5 L 1253.5732421875 330.5 L 1253.5732421875 388.5 C 1225.5732421875 370.5 1196.09423828125 402 1168.09423828125 379.5 L 1168.09423828125 330.5 Z" stroke-miterlimit="10"/></g><g transform="translate(-10,-6) scale(1,1)"><g><path fill="none" stroke="none"/><text fill="#000000" stroke="none" font-family="Arial" font-size="13px" font-style="normal" font-weight="normal" text-decoration="none" x="1183.031005859375" y="348.5">WAITING</text><text fill="#000000" stroke="none" font-family="Arial" font-size="13px" font-style="normal" font-weight="normal" text-decoration="none" x="1197.10693359375" y="361.5">LIST</text><text fill="#000000" stroke="none" font-family="Arial" font-size="13px" font-style="normal" font-weight="normal" text-decoration="none" x="1192.771484375" y="374.5">PAGE</text></g></g><g transform="translate(-10,-6) scale(1,1)"><path fill="none" stroke="#000000" d="M 866 282 Q 760 309 760 323" stroke-miterlimit="10"/></g><g transform="translate(-10,-6) scale(1,1)"><path fill="#000000" stroke="none" d="M 755.790482243984 312.83732514237585 L 760 323 L 764.209517756016 312.83732514237585"/></g><g transform="translate(-10,-6) scale(1,1)"><path fill="none" stroke="#000000" d="M 755.790482243984 312.83732514237585 L 760 323 L 764.209517756016 312.83732514237585 L 755.790482243984 312.83732514237585" stroke-miterlimit="10"/></g><g transform="translate(-10,-6) scale(1,1)"><path fill="none" stroke="#000000" d="M 866 274 Q 413 309 412 336" stroke-miterlimit="10"/></g><g transform="translate(-10,-6) scale(1,1)"><path fill="#000000" stroke="none" d="M 408.1695039351113 325.6884870219316 L 412 336 L 416.58277100829406 326.0000895061236"/></g><g transform="translate(-10,-6) scale(1,1)"><path fill="none" stroke="#000000" d="M 408.1695039351113 325.6884870219316 L 412 336 L 416.58277100829406 326.0000895061236 L 408.1695039351113 325.6884870219316" stroke-miterlimit="10"/></g><g transform="translate(-10,-6) scale(1,1)"><path fill="none" stroke="#000000" d="M 866 276 Q 594 309 593 336" stroke-miterlimit="10"/></g><g transform="translate(-10,-6) scale(1,1)"><path fill="#000000" stroke="none" d="M 589.1695039351113 325.6884870219316 L 593 336 L 597.582771008294 326.0000895061236"/></g><g transform="translate(-10,-6) scale(1,1)"><path fill="none" stroke="#000000" d="M 589.1695039351113 325.6884870219316 L 593 336 L 597.582771008294 326.0000895061236 L 589.1695039351113 325.6884870219316" stroke-miterlimit="10"/></g><g transform="translate(-10,-6) scale(1,1)"><path fill="none" stroke="#000000" d="M 911 294 Q 910 309 909 336" stroke-miterlimit="10"/></g><g transform="translate(-10,-6) scale(1,1)"><path fill="#000000" stroke="none" d="M 905.1695039351113 325.6884870219316 L 909 336 L 913.582771008294 326.0000895061236"/></g><g transform="translate(-10,-6) scale(1,1)"><path fill="none" stroke="#000000" d="M 905.1695039351113 325.6884870219316 L 909 336 L 913.582771008294 326.0000895061236 L 905.1695039351113 325.6884870219316" stroke-miterlimit="10"/></g><g transform="translate(-10,-6) scale(1,1)"><path fill="none" stroke="#000000" d="M 961 274 Q 1351 309 1351 330" stroke-miterlimit="10"/></g><g transform="translate(-10,-6) scale(1,1)"><path fill="#000000" stroke="none" d="M 1346.7904822439841 319.83732514237585 L 1351 330 L 1355.2095177560159 319.83732514237585"/></g><g transform="translate(-10,-6) scale(1,1)"><path fill="none" stroke="#000000" d="M 1346.7904822439841 319.83732514237585 L 1351 330 L 1355.2095177560159 319.83732514237585 L 1346.7904822439841 319.83732514237585" stroke-miterlimit="10"/></g><g transform="translate(-10,-6) scale(1,1)"><path fill="none" stroke="#000000" d="M 961 283 Q 1060 309 1060 330" stroke-miterlimit="10"/></g><g transform="translate(-10,-6) scale(1,1)"><path fill="#000000" stroke="none" d="M 1055.7904822439841 319.83732514237585 L 1060 330 L 1064.2095177560159 319.83732514237585"/></g><g transform="translate(-10,-6) scale(1,1)"><path fill="none" stroke="#000000" d="M 1055.7904822439841 319.83732514237585 L 1060 330 L 1064.2095177560159 319.83732514237585 L 1055.7904822439841 319.83732514237585" stroke-miterlimit="10"/></g><g transform="translate(-10,-6) scale(1,1)"><path fill="none" stroke="#000000" d="M 961 276 Q 1211 309 1211 330" stroke-miterlimit="10"/></g><g transform="translate(-10,-6) scale(1,1)"><path fill="#000000" stroke="none" d="M 1206.7904822439841 319.83732514237585 L 1211 330 L 1215.2095177560159 319.83732514237585"/></g><g transform="translate(-10,-6) scale(1,1)"><path fill="none" stroke="#000000" d="M 1206.7904822439841 319.83732514237585 L 1211 330 L 1215.2095177560159 319.83732514237585 L 1206.7904822439841 319.83732514237585" stroke-miterlimit="10"/></g><g transform="translate(-10,-6) scale(1,1)"><rect fill="#ffffff" stroke="none" x="323.850830078125" y="458.5" width="73.18994140625" height="58"/></g><g transform="translate(-10,-6) scale(1,1)"><path fill="none" stroke="#000000" d="M 323.850830078125 458.5 L 397.040771484375 458.5 L 397.040771484375 516.5 L 323.850830078125 516.5 L 323.850830078125 458.5 Z Z" stroke-miterlimit="10"/></g><g transform="translate(-10,-6) scale(1,1)"><g><path fill="none" stroke="none"/><text fill="#000000" stroke="none" font-family="Arial" font-size="13px" font-style="normal" font-weight="normal" text-decoration="none" x="343.833984375" y="481">VIEW</text><text fill="#000000" stroke="none" font-family="Arial" font-size="13px" font-style="normal" font-weight="normal" text-decoration="none" x="338.05126953125" y="494">USERS</text><text fill="#000000" stroke="none" font-family="Arial" font-size="13px" font-style="normal" font-weight="normal" text-decoration="none" x="333.35400390625" y="507">DETAILS</text></g></g><g transform="translate(-10,-6) scale(1,1)"><path fill="none" stroke="#000000" d="M 388 383 Q 361 411 360 458" stroke-miterlimit="10"/></g><g transform="translate(-10,-6) scale(1,1)"><path fill="#000000" stroke="none" d="M 356.0076129302576 447.7500807083493 L 360 458 L 364.4247434676047 447.9291685921226"/></g><g transform="translate(-10,-6) scale(1,1)"><path fill="none" stroke="#000000" d="M 356.0076129302576 447.7500807083493 L 360 458 L 364.4247434676047 447.9291685921226 L 356.0076129302576 447.7500807083493" stroke-miterlimit="10"/></g><g transform="translate(-10,-6) scale(1,1)"><rect fill="#ffffff" stroke="none" x="428.040771484375" y="465" width="73.18994140625" height="45"/></g><g transform="translate(-10,-6) scale(1,1)"><path fill="none" stroke="#000000" d="M 428.040771484375 465 L 501.230712890625 465 L 501.230712890625 510 L 428.040771484375 510 L 428.040771484375 465 Z Z" stroke-miterlimit="10"/></g><g transform="translate(-10,-6) scale(1,1)"><g><path fill="none" stroke="none"/><text fill="#000000" stroke="none" font-family="Arial" font-size="13px" font-style="normal" font-weight="normal" text-decoration="none" x="437.547119140625" y="487.5">UNLOCK</text><text fill="#000000" stroke="none" font-family="Arial" font-size="13px" font-style="normal" font-weight="normal" text-decoration="none" x="446.57666015625" y="500.5">USER</text></g></g><g transform="translate(-10,-6) scale(1,1)"><path fill="none" stroke="#000000" d="M 436 383 Q 465 411 464 464" stroke-miterlimit="10"/></g><g transform="translate(-10,-6) scale(1,1)"><path fill="#000000" stroke="none" d="M 459.9829457953653 453.759722878895 L 464 464 L 468.4004831250717 453.91854433794606"/></g><g transform="translate(-10,-6) scale(1,1)"><path fill="none" stroke="#000000" d="M 459.9829457953653 453.759722878895 L 464 464 L 468.4004831250717 453.91854433794606 L 459.9829457953653 453.759722878895" stroke-miterlimit="10"/></g><g transform="translate(-10,-6) scale(1,1)"><rect fill="#ffffff" stroke="none" x="535.302978515625" y="458.5" width="117.22998046875" height="58"/></g><g transform="translate(-10,-6) scale(1,1)"><path fill="none" stroke="#000000" d="M 535.302978515625 458.5 L 652.532958984375 458.5 L 652.532958984375 516.5 L 535.302978515625 516.5 L 535.302978515625 458.5 Z Z" stroke-miterlimit="10"/></g><g transform="translate(-10,-6) scale(1,1)"><g><path fill="none" stroke="none"/><text fill="#000000" stroke="none" font-family="Arial" font-size="13px" font-style="normal" font-weight="normal" text-decoration="none" x="568.638427734375" y="481">ADD OR</text><text fill="#000000" stroke="none" font-family="Arial" font-size="13px" font-style="normal" font-weight="normal" text-decoration="none" x="568.632080078125" y="494">DELETE</text><text fill="#000000" stroke="none" font-family="Arial" font-size="13px" font-style="normal" font-weight="normal" text-decoration="none" x="544.802978515625" y="507">DEPARTMENTS</text></g></g><g transform="translate(-10,-6) scale(1,1)"><path fill="none" stroke="#000000" d="M 593 383 Q 594 411 593 458" stroke-miterlimit="10"/></g><g transform="translate(-10,-6) scale(1,1)"><path fill="#000000" stroke="none" d="M 589.0076129302576 447.7500807083493 L 593 458 L 597.4247434676047 447.9291685921226"/></g><g transform="translate(-10,-6) scale(1,1)"><path fill="none" stroke="#000000" d="M 589.0076129302576 447.7500807083493 L 593 458 L 597.4247434676047 447.9291685921226 L 589.0076129302576 447.7500807083493" stroke-miterlimit="10"/></g><g transform="translate(-10,-6) scale(1,1)"><path fill="#ffffff" stroke="#000000" d="M 539.638427734375 560 L 648.197509765625 560 L 648.197509765625 618 C 612.197509765625 600 575.638427734375 631.5 539.638427734375 609 L 539.638427734375 560 Z" stroke-miterlimit="10"/></g><g transform="translate(-10,-6) scale(1,1)"><g><path fill="none" stroke="none"/><text fill="#000000" stroke="none" font-family="Arial" font-size="13px" font-style="normal" font-weight="normal" text-decoration="none" x="578.75341796875" y="578">NEW</text><text fill="#000000" stroke="none" font-family="Arial" font-size="13px" font-style="normal" font-weight="normal" text-decoration="none" x="549.138427734375" y="591">DEPARTMENT</text><text fill="#000000" stroke="none" font-family="Arial" font-size="13px" font-style="normal" font-weight="normal" text-decoration="none" x="575.855712890625" y="604">PAGE</text></g></g><g transform="translate(-10,-6) scale(1,1)"><path fill="none" stroke="#000000" d="M 593 518 L 593 559" stroke-miterlimit="10"/></g><g transform="translate(-10,-6) scale(1,1)"><path fill="#000000" stroke="none" d="M 588.790482243984 548.8373251423759 L 593 559 L 597.209517756016 548.8373251423759"/></g><g transform="translate(-10,-6) scale(1,1)"><path fill="none" stroke="#000000" d="M 588.790482243984 548.8373251423759 L 593 559 L 597.209517756016 548.8373251423759 L 588.790482243984 548.8373251423759" stroke-miterlimit="10"/></g><g transform="translate(-10,-6) scale(1,1)"><path fill="#ffffff" stroke="#000000" d="M 703.441162109375 452 L 815.624755859375 452 L 815.624755859375 523 C 778.624755859375 501 740.441162109375 539.5 703.441162109375 512 L 703.441162109375 452 Z" stroke-miterlimit="10"/></g><g transform="translate(-10,-6) scale(1,1)"><g><path fill="none" stroke="none"/><text fill="#000000" stroke="none" font-family="Arial" font-size="13px" font-style="normal" font-weight="normal" text-decoration="none" x="720.171142578125" y="475">ADMIN VIEW</text><text fill="#000000" stroke="none" font-family="Arial" font-size="13px" font-style="normal" font-weight="normal" text-decoration="none" x="712.941162109375" y="488">RESERVATION</text><text fill="#000000" stroke="none" font-family="Arial" font-size="13px" font-style="normal" font-weight="normal" text-decoration="none" x="741.470703125" y="501">PAGE</text></g></g><g transform="translate(-10,-6) scale(1,1)"><path fill="none" stroke="#000000" d="M 760 396 Q 760 411 759 451" stroke-miterlimit="10"/></g><g transform="translate(-10,-6) scale(1,1)"><path fill="#000000" stroke="none" d="M 755.0457846147159 440.7352944179201 L 759 451 L 763.4621904107655 440.94570456282133"/></g><g transform="translate(-10,-6) scale(1,1)"><path fill="none" stroke="#000000" d="M 755.0457846147159 440.7352944179201 L 759 451 L 763.4621904107655 440.94570456282133 L 755.0457846147159 440.7352944179201" stroke-miterlimit="10"/></g><g transform="translate(-10,-6) scale(1,1)"><rect fill="#ffffff" stroke="none" x="854.992919921875" y="426" width="108.55908203125" height="123"/></g><g transform="translate(-10,-6) scale(1,1)"><path fill="none" stroke="#000000" d="M 854.992919921875 426 L 963.552001953125 426 L 963.552001953125 549 L 854.992919921875 549 L 854.992919921875 426 Z Z" stroke-miterlimit="10"/></g><g transform="translate(-10,-6) scale(1,1)"><g><path fill="none" stroke="none"/><text fill="#000000" stroke="none" font-family="Arial" font-size="13px" font-style="normal" font-weight="normal" text-decoration="none" x="873.51611328125" y="448.5">GENERATE</text><text fill="#000000" stroke="none" font-family="Arial" font-size="13px" font-style="normal" font-weight="normal" text-decoration="none" x="882.18701171875" y="461.5">REPORT</text><text fill="#000000" stroke="none" font-family="Arial" font-size="13px" font-style="normal" font-weight="normal" text-decoration="none" x="875.6806640625" y="474.5">BASED ON</text><text fill="#000000" stroke="none" font-family="Arial" font-size="13px" font-style="normal" font-weight="normal" text-decoration="none" x="885.795654296875" y="487.5">EVENT,</text><text fill="#000000" stroke="none" font-family="Arial" font-size="13px" font-style="normal" font-weight="normal" text-decoration="none" x="870.98974609375" y="500.5">CATEGORY,</text><text fill="#000000" stroke="none" font-family="Arial" font-size="13px" font-style="normal" font-weight="normal" text-decoration="none" x="899.5224609375" y="513.5">OR</text><text fill="#000000" stroke="none" font-family="Arial" font-size="13px" font-style="normal" font-weight="normal" text-decoration="none" x="864.492919921875" y="526.5">DEPARTMENT</text></g></g><g transform="translate(-10,-6) scale(1,1)"><path fill="none" stroke="#000000" d="M 909 383 Q 910 411 910 425" stroke-miterlimit="10"/></g><g transform="translate(-10,-6) scale(1,1)"><path fill="#000000" stroke="none" d="M 905.790482243984 414.83732514237585 L 910 425 L 914.209517756016 414.83732514237585"/></g><g transform="translate(-10,-6) scale(1,1)"><path fill="none" stroke="#000000" d="M 905.790482243984 414.83732514237585 L 910 425 L 914.209517756016 414.83732514237585 L 905.790482243984 414.83732514237585" stroke-miterlimit="10"/></g><g transform="translate(-10,-6) scale(1,1)"><rect fill="#ffffff" stroke="none" x="871.6015625" y="586.5" width="75.341796875" height="58"/></g><g transform="translate(-10,-6) scale(1,1)"><path fill="none" stroke="#000000" d="M 871.6015625 586.5 L 946.943359375 586.5 L 946.943359375 644.5 L 871.6015625 644.5 L 871.6015625 586.5 Z Z" stroke-miterlimit="10"/></g><g transform="translate(-10,-6) scale(1,1)"><g><path fill="none" stroke="none"/><text fill="#000000" stroke="none" font-family="Arial" font-size="13px" font-style="normal" font-weight="normal" text-decoration="none" x="881.1015625" y="609">CHOOSE</text><text fill="#000000" stroke="none" font-family="Arial" font-size="13px" font-style="normal" font-weight="normal" text-decoration="none" x="882.18701171875" y="622">REPORT</text><text fill="#000000" stroke="none" font-family="Arial" font-size="13px" font-style="normal" font-weight="normal" text-decoration="none" x="881.83154296875" y="635">FORMAT</text></g></g><g transform="translate(-10,-6) scale(1,1)"><path fill="none" stroke="#000000" d="M 910 550 Q 910 565 910 586" stroke-miterlimit="10"/></g><g transform="translate(-10,-6) scale(1,1)"><path fill="#000000" stroke="none" d="M 905.790482243984 575.8373251423759 L 910 586 L 914.209517756016 575.8373251423759"/></g><g transform="translate(-10,-6) scale(1,1)"><path fill="none" stroke="#000000" d="M 905.790482243984 575.8373251423759 L 910 586 L 914.209517756016 575.8373251423759 L 905.790482243984 575.8373251423759" stroke-miterlimit="10"/></g><g transform="translate(-10,-6) scale(1,1)"><rect fill="#ffffff" stroke="none" x="994.552001953125" y="465" width="129.18994140625" height="45"/></g><g transform="translate(-10,-6) scale(1,1)"><path fill="none" stroke="#000000" d="M 994.552001953125 465 L 1123.741943359375 465 L 1123.741943359375 510 L 994.552001953125 510 L 994.552001953125 465 Z Z" stroke-miterlimit="10"/></g><g transform="translate(-10,-6) scale(1,1)"><g><path fill="none" stroke="none"/><text fill="#000000" stroke="none" font-family="Arial" font-size="13px" font-style="normal" font-weight="normal" text-decoration="none" x="1006.413818359375" y="487.5">UPLOAD CSV OF</text><text fill="#000000" stroke="none" font-family="Arial" font-size="13px" font-style="normal" font-weight="normal" text-decoration="none" x="1023.025634765625" y="500.5">BULK DATA</text></g></g><g transform="translate(-10,-6) scale(1,1)"><path fill="none" stroke="#000000" d="M 1060 390 Q 1060 411 1059 464" stroke-miterlimit="10"/></g><g transform="translate(-10,-6) scale(1,1)"><path fill="#000000" stroke="none" d="M 1054.9829457953654 453.759722878895 L 1059 464 L 1063.4004831250716 453.91854433794606"/></g><g transform="translate(-10,-6) scale(1,1)"><path fill="none" stroke="#000000" d="M 1054.9829457953654 453.759722878895 L 1059 464 L 1063.4004831250716 453.91854433794606 L 1054.9829457953654 453.759722878895" stroke-miterlimit="10"/></g><g transform="translate(-10,-6) scale(1,1)"><rect fill="#ffffff" stroke="none" x="1154.741943359375" y="452" width="112.18359375" height="71"/></g><g transform="translate(-10,-6) scale(1,1)"><path fill="none" stroke="#000000" d="M 1154.741943359375 452 L 1266.925537109375 452 L 1266.925537109375 523 L 1154.741943359375 523 L 1154.741943359375 452 Z Z" stroke-miterlimit="10"/></g><g transform="translate(-10,-6) scale(1,1)"><g><path fill="none" stroke="none"/><text fill="#000000" stroke="none" font-family="Arial" font-size="13px" font-style="normal" font-weight="normal" text-decoration="none" x="1197.110107421875" y="474.5">ADD</text><text fill="#000000" stroke="none" font-family="Arial" font-size="13px" font-style="normal" font-weight="normal" text-decoration="none" x="1164.241943359375" y="487.5">RESERVATION</text><text fill="#000000" stroke="none" font-family="Arial" font-size="13px" font-style="normal" font-weight="normal" text-decoration="none" x="1172.19873046875" y="500.5">TO WAITING</text><text fill="#000000" stroke="none" font-family="Arial" font-size="13px" font-style="normal" font-weight="normal" text-decoration="none" x="1197.10693359375" y="513.5">LIST</text></g></g><g transform="translate(-10,-6) scale(1,1)"><path fill="none" stroke="#000000" d="M 1211 390 Q 1211 411 1210 451" stroke-miterlimit="10"/></g><g transform="translate(-10,-6) scale(1,1)"><path fill="#000000" stroke="none" d="M 1206.045784614716 440.7352944179201 L 1210 451 L 1214.4621904107655 440.94570456282133"/></g><g transform="translate(-10,-6) scale(1,1)"><path fill="none" stroke="#000000" d="M 1206.045784614716 440.7352944179201 L 1210 451 L 1214.4621904107655 440.94570456282133 L 1206.045784614716 440.7352944179201" stroke-miterlimit="10"/></g><g transform="translate(-10,-6) scale(1,1)"><rect fill="#ffffff" stroke="none" x="1165.577392578125" y="560" width="90.5126953125" height="58"/></g><g transform="translate(-10,-6) scale(1,1)"><path fill="none" stroke="#000000" d="M 1165.577392578125 560 L 1256.090087890625 560 L 1256.090087890625 618 L 1165.577392578125 618 L 1165.577392578125 560 Z Z" stroke-miterlimit="10"/></g><g transform="translate(-10,-6) scale(1,1)"><g><path fill="none" stroke="none"/><text fill="#000000" stroke="none" font-family="Arial" font-size="13px" font-style="normal" font-weight="normal" text-decoration="none" x="1175.077392578125" y="582.5">GENERATE</text><text fill="#000000" stroke="none" font-family="Arial" font-size="13px" font-style="normal" font-weight="normal" text-decoration="none" x="1189.8896484375" y="595.5">ADMIN</text><text fill="#000000" stroke="none" font-family="Arial" font-size="13px" font-style="normal" font-weight="normal" text-decoration="none" x="1191.327392578125" y="608.5">EMAIL</text></g></g><g transform="translate(-10,-6) scale(1,1)"><path fill="none" stroke="#000000" d="M 1210 524 L 1210 559" stroke-miterlimit="10"/></g><g transform="translate(-10,-6) scale(1,1)"><path fill="#000000" stroke="none" d="M 1205.7904822439841 548.8373251423759 L 1210 559 L 1214.2095177560159 548.8373251423759"/></g><g transform="translate(-10,-6) scale(1,1)"><path fill="none" stroke="#000000" d="M 1205.7904822439841 548.8373251423759 L 1210 559 L 1214.2095177560159 548.8373251423759 L 1205.7904822439841 548.8373251423759" stroke-miterlimit="10"/></g><g transform="translate(-10,-6) scale(1,1)"><rect fill="#ffffff" stroke="none" x="48" y="1104" width="90.5126953125" height="58"/></g><g transform="translate(-10,-6) scale(1,1)"><path fill="none" stroke="#000000" d="M 48 1104 L 138.5126953125 1104 L 138.5126953125 1162 L 48 1162 L 48 1104 Z Z" stroke-miterlimit="10"/></g><g transform="translate(-10,-6) scale(1,1)"><g><path fill="none" stroke="none"/><text fill="#000000" stroke="none" font-family="Arial" font-size="13px" font-style="normal" font-weight="normal" text-decoration="none" x="57.5" y="1126.5">GENERATE</text><text fill="#000000" stroke="none" font-family="Arial" font-size="13px" font-style="normal" font-weight="normal" text-decoration="none" x="72.312255859375" y="1139.5">ADMIN</text><text fill="#000000" stroke="none" font-family="Arial" font-size="13px" font-style="normal" font-weight="normal" text-decoration="none" x="73.75" y="1152.5">EMAIL</text></g></g><g transform="translate(-10,-6) scale(1,1)"><path fill="none" stroke="#000000" d="M 93 1056 L 93 1103" stroke-miterlimit="10"/></g><g transform="translate(-10,-6) scale(1,1)"><path fill="#000000" stroke="none" d="M 88.79048224398402 1092.837325142376 L 93 1103 L 97.20951775601598 1092.837325142376"/></g><g transform="translate(-10,-6) scale(1,1)"><path fill="none" stroke="#000000" d="M 88.79048224398402 1092.837325142376 L 93 1103 L 97.20951775601598 1092.837325142376 L 88.79048224398402 1092.837325142376" stroke-miterlimit="10"/></g><g transform="translate(-10,-6) scale(1,1)"><rect fill="#ffffff" stroke="none" x="1297.925537109375" y="458.5" width="104.236328125" height="58"/></g><g transform="translate(-10,-6) scale(1,1)"><path fill="none" stroke="#000000" d="M 1297.925537109375 458.5 L 1402.161865234375 458.5 L 1402.161865234375 516.5 L 1297.925537109375 516.5 L 1297.925537109375 458.5 Z Z" stroke-miterlimit="10"/></g><g transform="translate(-10,-6) scale(1,1)"><g><path fill="none" stroke="none"/><text fill="#000000" stroke="none" font-family="Arial" font-size="13px" font-style="normal" font-weight="normal" text-decoration="none" x="1324.76416015625" y="481">ADD OR</text><text fill="#000000" stroke="none" font-family="Arial" font-size="13px" font-style="normal" font-weight="normal" text-decoration="none" x="1324.7578125" y="494">DELETE</text><text fill="#000000" stroke="none" font-family="Arial" font-size="13px" font-style="normal" font-weight="normal" text-decoration="none" x="1307.425537109375" y="507">CATEGORIES</text></g></g><g transform="translate(-10,-6) scale(1,1)"><path fill="none" stroke="#000000" d="M 1351 390 Q 1351 411 1350 458" stroke-miterlimit="10"/></g><g transform="translate(-10,-6) scale(1,1)"><path fill="#000000" stroke="none" d="M 1346.0076129302577 447.7500807083493 L 1350 458 L 1354.4247434676047 447.9291685921226"/></g><g transform="translate(-10,-6) scale(1,1)"><path fill="none" stroke="#000000" d="M 1346.0076129302577 447.7500807083493 L 1350 458 L 1354.4247434676047 447.9291685921226 L 1346.0076129302577 447.7500807083493" stroke-miterlimit="10"/></g><g transform="translate(-10,-6) scale(1,1)"><path fill="#ffffff" stroke="none" d="M 893.5 728 L 923.578125 728 Q 953.078125 728 953.078125 757.5 L 953.078125 756.5 Q 953.078125 786 923.578125 786 L 893.5 786 Q 864 786 864 756.5 L 864 757.5 Q 864 728 893.5 728 Z"/></g><g transform="translate(-10,-6) scale(1,1)"><path fill="none" stroke="#000000" d="M 893.5 728 L 923.578125 728 Q 953.078125 728 953.078125 757.5 L 953.078125 756.5 Q 953.078125 786 923.578125 786 L 893.5 786 Q 864 786 864 756.5 L 864 757.5 Q 864 728 893.5 728 Z" stroke-miterlimit="10"/></g><g transform="translate(-10,-6) scale(1,1)"><g><path fill="none" stroke="none"/><text fill="#000000" stroke="none" font-family="Arial" font-size="13px" font-style="normal" font-weight="normal" text-decoration="none" x="881.456787109375" y="750.5">RETURN</text><text fill="#000000" stroke="none" font-family="Arial" font-size="13px" font-style="normal" font-weight="normal" text-decoration="none" x="898.7890625" y="763.5">OR</text><text fill="#000000" stroke="none" font-family="Arial" font-size="13px" font-style="normal" font-weight="normal" text-decoration="none" x="881.091796875" y="776.5">LOGOUT</text></g></g><g transform="translate(-10,-6) scale(1,1)"><path fill="none" stroke="#000000" d="M 365 518 Q 397 735 863 755" stroke-miterlimit="10"/></g><g transform="translate(-10,-6) scale(1,1)"><path fill="#000000" stroke="none" d="M 852.6661721887821 758.7698810018486 L 863 755 L 853.0271718584002 750.3585886997472"/></g><g transform="translate(-10,-6) scale(1,1)"><path fill="none" stroke="#000000" d="M 852.6661721887821 758.7698810018486 L 863 755 L 853.0271718584002 750.3585886997472 L 852.6661721887821 758.7698810018486" stroke-miterlimit="10"/></g><g transform="translate(-10,-6) scale(1,1)"><path fill="none" stroke="#000000" d="M 468 511 Q 501 730 863 754" stroke-miterlimit="10"/></g><g transform="translate(-10,-6) scale(1,1)"><path fill="#000000" stroke="none" d="M 852.5811139373111 757.5280041401204 L 863 754 L 853.1380593611293 749.1274106641961"/></g><g transform="translate(-10,-6) scale(1,1)"><path fill="none" stroke="#000000" d="M 852.5811139373111 757.5280041401204 L 863 754 L 853.1380593611293 749.1274106641961 L 852.5811139373111 757.5280041401204" stroke-miterlimit="10"/></g><g transform="translate(-10,-6) scale(1,1)"><path fill="none" stroke="#000000" d="M 604 619 Q 648 737 863 754" stroke-miterlimit="10"/></g><g transform="translate(-10,-6) scale(1,1)"><path fill="#000000" stroke="none" d="M 852.5371356512626 757.3953600133004 L 863 754 L 853.2007555783985 749.0025197583471"/></g><g transform="translate(-10,-6) scale(1,1)"><path fill="none" stroke="#000000" d="M 852.5371356512626 757.3953600133004 L 863 754 L 853.2007555783985 749.0025197583471 L 852.5371356512626 757.3953600133004" stroke-miterlimit="10"/></g><g transform="translate(-10,-6) scale(1,1)"><path fill="none" stroke="#000000" d="M 909 645 L 909 728" stroke-miterlimit="10"/></g><g transform="translate(-10,-6) scale(1,1)"><path fill="#000000" stroke="none" d="M 904.790482243984 717.8373251423759 L 909 728 L 913.209517756016 717.8373251423759"/></g><g transform="translate(-10,-6) scale(1,1)"><path fill="none" stroke="#000000" d="M 904.790482243984 717.8373251423759 L 909 728 L 913.209517756016 717.8373251423759 L 904.790482243984 717.8373251423759" stroke-miterlimit="10"/></g><g transform="translate(-10,-6) scale(1,1)"><path fill="none" stroke="#000000" d="M 762 524 Q 779 728 863 747" stroke-miterlimit="10"/></g><g transform="translate(-10,-6) scale(1,1)"><path fill="#000000" stroke="none" d="M 852.1590365392794 748.8637358298113 L 863 747 L 854.0164209787291 740.6521414659288"/></g><g transform="translate(-10,-6) scale(1,1)"><path fill="none" stroke="#000000" d="M 852.1590365392794 748.8637358298113 L 863 747 L 854.0164209787291 740.6521414659288 L 852.1590365392794 748.8637358298113" stroke-miterlimit="10"/></g><g transform="translate(-10,-6) scale(1,1)"><path fill="none" stroke="#000000" d="M 1058 511 Q 1046 728 954 747" stroke-miterlimit="10"/></g><g transform="translate(-10,-6) scale(1,1)"><path fill="#000000" stroke="none" d="M 963.1012546339667 740.8220420778626 L 954 747 L 964.8040348096118 749.0670829283548"/></g><g transform="translate(-10,-6) scale(1,1)"><path fill="none" stroke="#000000" d="M 963.1012546339667 740.8220420778626 L 954 747 L 964.8040348096118 749.0670829283548 L 963.1012546339667 740.8220420778626" stroke-miterlimit="10"/></g><g transform="translate(-10,-6) scale(1,1)"><path fill="none" stroke="#000000" d="M 1201 619 Q 1166 736 954 753" stroke-miterlimit="10"/></g><g transform="translate(-10,-6) scale(1,1)"><path fill="#000000" stroke="none" d="M 963.7936818593607 747.9916274462028 L 954 753 L 964.4666330510362 756.383724660039"/></g><g transform="translate(-10,-6) scale(1,1)"><path fill="none" stroke="#000000" d="M 963.7936818593607 747.9916274462028 L 954 753 L 964.4666330510362 756.383724660039 L 963.7936818593607 747.9916274462028" stroke-miterlimit="10"/></g><g transform="translate(-10,-6) scale(1,1)"><path fill="none" stroke="#000000" d="M 1344 518 Q 1302 729 954 754" stroke-miterlimit="10"/></g><g transform="translate(-10,-6) scale(1,1)"><path fill="#000000" stroke="none" d="M 963.8349213380338 749.0731021651868 L 954 754 L 964.4381824397697 757.4704967013503"/></g><g transform="translate(-10,-6) scale(1,1)"><path fill="none" stroke="#000000" d="M 963.8349213380338 749.0731021651868 L 954 754 L 964.4381824397697 757.4704967013503 L 963.8349213380338 749.0731021651868" stroke-miterlimit="10"/></g></g></svg>